<svg width="45" height="45" viewBox="0 0 45 45" fill="none" xmlns="http://www.w3.org/2000/svg">
<path d="M21 38C17.9333 38 15.3333 37.2 13.2 35.6C11.0667 34 10 32.05 10 29.75V14C10 12.35 10.7833 10.9375 12.35 9.7625C13.9167 8.5875 15.8 8 18 8C20.2 8 22.0833 8.5875 23.65 9.7625C25.2167 10.9375 26 12.35 26 14V26H23V14C23 12.95 22.5167 12.0625 21.55 11.3375C20.5833 10.6125 19.4 10.25 18 10.25C16.6 10.25 15.4167 10.6125 14.45 11.3375C13.4833 12.0625 13 12.95 13 14V29.75C13 31.4 13.7833 32.8125 15.35 33.9875C16.9167 35.1625 18.8 35.75 21 35.75C21.9667 35.75 22.8753 35.631 23.726 35.393C24.5767 35.155 25.3347 34.824 26 34.4V37.1C25.2333 37.375 24.4333 37.594 23.6 37.757C22.7667 37.92 21.9 38.001 21 38ZM30 32H26C25.4333 32 24.958 31.856 24.574 31.568C24.19 31.28 23.9987 30.924 24 30.5C24 30.075 24.192 29.7185 24.576 29.4305C24.96 29.1425 25.4347 28.999 26 29H30V26C30 25.575 30.192 25.2185 30.576 24.9305C30.96 24.6425 31.4347 24.499 32 24.5C32.5667 24.5 33.042 24.644 33.426 24.932C33.81 25.22 34.0013 25.576 34 26V29H38C38.5667 29 39.042 29.144 39.426 29.432C39.81 29.72 40.0013 30.076 40 30.5C40 30.925 39.808 31.2815 39.424 31.5695C39.04 31.8575 38.5653 32.001 38 32H34V35C34 35.425 33.808 35.7815 33.424 36.0695C33.04 36.3575 32.5653 36.501 32 36.5C31.4333 36.5 30.958 36.356 30.574 36.068C30.19 35.78 29.9987 35.424 30 35V32ZM21 29.75V32C19.6 32 18.4167 31.6375 17.45 30.9125C16.4833 30.1875 16 29.3 16 28.25V15.125C16 14.8 16.142 14.5315 16.426 14.3195C16.71 14.1075 17.068 14.001 17.5 14C17.9333 14 18.2913 14.1065 18.574 14.3195C18.8567 14.5325 18.9987 14.801 19 15.125V28.25C19 28.675 19.192 29.0315 19.576 29.3195C19.96 29.6075 20.4347 29.751 21 29.75ZM29 21.5V15.125C29 14.8 29.142 14.5315 29.426 14.3195C29.71 14.1075 30.068 14.001 30.5 14C30.9333 14 31.2913 14.1065 31.574 14.3195C31.8567 14.5325 31.9987 14.801 32 15.125V21.5H29Z" fill="#5666BE"/>
</svg>
