<svg width="64" height="64" viewBox="0 0 64 64" fill="none" xmlns="http://www.w3.org/2000/svg">
	<path d="M38.6518 49.29C51.4921 44.0075 61.0092 37.5569 59.9088 34.8821C58.8084 32.2073 47.5072 34.3212 34.6669 39.6036C21.8266 44.8861 12.3095 51.3367 13.4099 54.0115C14.5103 56.6863 25.8115 54.5724 38.6518 49.29Z" fill="#BD851D" />
	<path d="M37.0997 45.472C43.3784 42.8904 47.8272 39.2386 47.0365 37.3155C46.2457 35.3923 40.5149 35.9261 34.2362 38.5077C27.9575 41.0893 23.5087 44.7411 24.2994 46.6643C25.0902 48.5874 30.821 48.0536 37.0997 45.472Z" fill="#844F15" />
	<path d="M29.6791 48.0799L28.7801 42.0499C28.6211 40.9859 27.2421 40.3049 25.6931 40.5369C24.1441 40.7689 23.0211 41.8189 23.1801 42.8859L24.0811 48.9159C21.1281 50.1609 19.2461 52.5219 19.6041 54.9069C20.0631 57.9849 24.0391 59.9369 28.4921 59.2699C32.9361 58.6059 36.1701 55.5779 35.7141 52.5009C35.3561 50.1139 32.8661 48.4089 29.6741 48.0799" fill="#FBB041" />
	<path d="M22.7781 54.4301C22.4221 52.0431 24.3081 49.6821 27.2541 48.4391L26.3531 42.4091C26.2561 41.7491 26.6551 41.0941 27.3301 40.6381C26.799 40.4818 26.2397 40.4463 25.6931 40.5341C24.1441 40.7661 23.0211 41.8161 23.1801 42.8831L24.0811 48.9131C21.1281 50.1581 19.2461 52.5191 19.6041 54.9041C20.0631 57.9821 24.0391 59.9341 28.4921 59.2671C29.0231 59.1863 29.5482 59.0707 30.0641 58.9211C26.2971 58.9631 23.1831 57.1291 22.7781 54.4301Z" fill="#E09734" />
	<path d="M34.6401 52.733C34.7501 53.479 34.6461 54.198 34.3821 54.81C34.3151 54.96 34.2391 55.107 34.1521 55.242C33.8361 55.705 32.9761 56.51 32.8341 55.853C32.7753 55.5698 32.6988 55.2906 32.6051 55.017C32.5575 54.883 32.5065 54.7503 32.4521 54.619C31.8401 52.759 30.4991 53.029 29.4111 52.312C28.8721 51.987 29.2541 51.253 29.5431 50.904C29.6391 50.771 29.7401 50.652 29.8431 50.543C30.2601 50.105 30.7311 49.835 31.2581 49.789C31.4134 49.7668 31.5702 49.7578 31.7271 49.762C33.1351 49.82 34.3881 51.055 34.6401 52.733Z" fill="#F9C178" />
	<path d="M26.9929 6.80905C27.7159 8.56505 26.2389 10.8391 23.6969 11.8821C21.1489 12.9321 18.5039 12.3541 17.7809 10.5971C17.0579 8.84105 18.5329 6.56705 21.0819 5.52105C23.6209 4.47605 26.2699 5.05205 26.9929 6.80905Z" fill="#FBB041" />
	<path d="M25.5508 6.481C25.6868 6.81 25.6578 7.179 25.4988 7.533C25.457 7.62278 25.4092 7.70964 25.3558 7.793C25.1468 8.088 24.5488 8.677 24.3958 8.398C24.2993 8.21144 24.1726 8.04215 24.0208 7.897C23.4278 7.157 22.4258 7.602 21.5548 7.518C21.1228 7.493 21.3618 7.051 21.5568 6.816C21.6218 6.73 21.6888 6.65 21.7648 6.573C22.0441 6.26312 22.3935 6.02449 22.7838 5.877C22.9013 5.83079 23.0208 5.78942 23.1418 5.753C24.2118 5.448 25.2468 5.74 25.5508 6.481Z" fill="#F9C178" />
	<path d="M21.3599 8.26298C20.9789 7.33898 21.1289 6.28898 21.6799 5.30798C21.4775 5.37097 21.2776 5.44202 21.0809 5.52098C18.5329 6.56898 17.0609 8.84098 17.7799 10.597C18.5029 12.353 21.1479 12.931 23.6959 11.882C24.6309 11.499 25.4229 10.947 26.0139 10.317C23.8679 10.547 21.9839 9.78798 21.3599 8.26298Z" fill="#E09734" />
	<path fill-rule="evenodd" clip-rule="evenodd" d="M50.1897 30.05C46.2377 28.139 43.4817 25.196 41.3527 21.651C39.3427 18.294 37.7227 14.748 36.1627 11.186C35.2177 9.03598 33.6377 8.24398 31.1767 8.41898C29.4869 8.54358 27.8132 8.83126 26.1787 9.27798C25.2397 9.61698 24.3067 9.96898 23.3627 10.328C22.3527 10.772 21.3627 11.215 20.3747 11.676C19.8697 11.913 19.3647 12.152 18.8637 12.393C17.5871 13.1489 16.3771 14.012 15.2467 14.973C13.3747 16.578 12.8077 18.252 13.6497 20.447C15.0467 24.074 16.3907 27.731 17.3227 31.537C18.3057 35.557 18.4147 39.587 16.9517 43.725C16.1997 45.852 15.2917 47.927 14.4037 50.01C13.8337 51.343 13.2887 52.68 13.3917 54.109C13.5817 54.218 13.7167 54.162 13.8127 53.968C15.0427 51.508 17.3017 49.903 19.5417 48.324C23.3997 45.604 27.6017 43.435 31.8937 41.426C32.8787 40.963 33.8757 40.525 34.8817 40.081C35.9087 39.686 36.9277 39.299 37.9537 38.935C42.4217 37.339 46.9297 35.925 51.5857 35.146C54.2867 34.691 57.0227 34.245 59.6257 35.125C59.8327 35.197 59.9657 35.143 60.0217 34.933C59.0927 33.846 57.7597 33.278 56.4207 32.731C54.3227 31.874 52.2187 31.036 50.1887 30.055" fill="#FBB041" />
	<path fill-rule="evenodd" clip-rule="evenodd" d="M56.4099 32.71C54.3119 31.855 52.2079 31.015 50.1779 30.036C46.2259 28.125 43.4699 25.181 41.3389 21.635C39.3289 18.278 37.7089 14.732 36.1499 11.172C35.2049 9.01996 33.6249 8.22996 31.1629 8.40596C29.4737 8.52892 27.8005 8.81593 26.1669 9.26296C25.2289 9.60296 24.2959 9.95496 23.3509 10.315C22.7879 10.562 22.2299 10.82 21.6699 11.071C22.0279 10.937 22.3889 10.799 22.7519 10.667C24.3929 10.225 26.0519 9.93096 27.7499 9.80796C30.2099 9.63396 31.7899 10.426 32.7349 12.579C34.2969 16.14 35.9149 19.685 37.9239 23.04C40.0549 26.59 42.8109 29.53 46.7629 31.441C48.7929 32.422 50.8979 33.26 52.9949 34.115C53.4579 34.303 53.9149 34.505 54.3589 34.719C56.1329 34.527 57.9029 34.529 59.6149 35.107C59.8199 35.175 59.9539 35.122 60.0109 34.914C59.0819 33.822 57.7489 33.255 56.4099 32.71Z" fill="#F9C178" />
	<path fill-rule="evenodd" clip-rule="evenodd" d="M21.4498 45.9429C22.3388 43.8579 23.2458 41.7819 23.9978 39.6569C25.4608 35.5189 25.3518 31.4879 24.3668 27.4689C23.4368 23.6679 22.0908 20.0129 20.6958 16.3789C19.8538 14.1849 20.4218 12.5099 22.2948 10.9029C22.4098 10.8019 22.5318 10.7079 22.6508 10.6119C21.8838 10.9559 21.1168 11.2889 20.3628 11.6449C19.8558 11.8819 19.3508 12.1209 18.8498 12.3609C17.5738 13.116 16.3644 13.9785 15.2348 14.9389C13.3608 16.5439 12.7938 18.2209 13.6378 20.4129C15.0338 24.0429 16.3788 27.7019 17.3098 31.5029C18.2948 35.5229 18.4038 39.5529 16.9388 43.6889C16.1868 45.8169 15.2808 47.8909 14.3928 49.9779C13.8228 51.3089 13.2778 52.6459 13.3808 54.0729C13.5708 54.1839 13.7028 54.1259 13.7998 53.9329C15.0318 51.4739 17.2888 49.8699 19.5288 48.2889C19.9788 47.9749 20.4358 47.6639 20.8948 47.3599C21.0598 46.8839 21.2488 46.4099 21.4498 45.9399" fill="#E09734" />
	<path d="M62.1698 27.553C61.8218 27.048 61.4768 26.543 61.1328 26.048C61.0798 25.968 61.0598 25.9 61.0218 25.828C60.9758 25.75 60.9248 25.671 60.8918 25.583C60.8378 25.4511 60.8037 25.3119 60.7908 25.17C60.7888 25.143 60.7738 25.118 60.7698 25.086C60.3838 20.006 57.5968 14.925 53.0868 11.354C50.6638 9.43495 50.1428 10.093 48.3508 7.48995C47.6198 6.42595 48.0848 5.52195 48.9668 5.85995C57.0558 8.94395 63.9128 18.9 63.9078 27.555C63.9088 28.5 62.8978 28.613 62.1698 27.553Z" fill="#27AAE1" />
	<path d="M57.21 28.4449L56.359 27.2109C56.315 27.1439 56.298 27.0959 56.264 27.0309C56.229 26.9659 56.185 26.8989 56.156 26.8279C56.1145 26.7196 56.0876 26.6063 56.076 26.4909C56.074 26.4679 56.063 26.4449 56.059 26.4219C55.745 22.2409 53.448 18.0589 49.735 15.1179C47.744 13.5439 47.316 14.0789 45.843 11.9409C45.239 11.0629 45.62 10.3189 46.348 10.5959C53.006 13.1379 58.645 21.3249 58.643 28.4519C58.644 29.2309 57.813 29.3189 57.21 28.4449ZM7.98796 47.6909L7.62496 45.9009C7.60596 45.8069 7.57096 45.7439 7.54496 45.6669C7.52196 45.5809 7.49896 45.4889 7.45896 45.4029C7.40045 45.2733 7.32367 45.1527 7.23096 45.0449C7.21396 45.0239 7.20396 44.9959 7.18696 44.9719C3.79896 41.1659 2.07796 35.6329 2.63996 29.9119C2.94196 26.8359 3.77796 26.9169 3.14896 23.8199C2.88896 22.5539 1.91896 22.2609 1.54796 23.1309C-1.85104 31.0939 0.547964 42.9389 6.78296 48.9479C7.46396 49.6059 8.24296 48.9559 7.98796 47.6939" fill="#27AAE1" />
	<path d="M12.0698 44.7449C11.9688 44.2589 11.8688 43.7599 11.7718 43.2779C11.7528 43.1979 11.7298 43.1519 11.7048 43.0849C11.6838 43.0139 11.6668 42.9349 11.6358 42.865C11.587 42.7597 11.5237 42.6617 11.4478 42.5739C11.4328 42.5539 11.4248 42.5319 11.4118 42.511C8.62081 39.3829 7.20781 34.8239 7.66881 30.1139C7.91981 27.5869 8.60181 27.6499 8.08581 25.1039C7.87481 24.0609 7.07381 23.8169 6.76781 24.5339C3.97181 31.0889 5.94581 40.8339 11.0758 45.7809C11.6388 46.3209 12.2798 45.7839 12.0698 44.7429" fill="#27AAE1" />
</svg>
