<svg width="38" height="38" viewBox="0 0 38 38" fill="none" xmlns="http://www.w3.org/2000/svg">
<path d="M18.9942 35.0728C21.3952 35.0728 23.3416 33.1264 23.3416 30.7254C23.3416 28.3243 21.3952 26.3779 18.9942 26.3779C16.5931 26.3779 14.6467 28.3243 14.6467 30.7254C14.6467 33.1264 16.5931 35.0728 18.9942 35.0728Z" fill="url(#paint0_radial_354_1303)"/>
<path d="M18.9942 35.0728C21.3952 35.0728 23.3416 33.1264 23.3416 30.7254C23.3416 28.3243 21.3952 26.3779 18.9942 26.3779C16.5931 26.3779 14.6467 28.3243 14.6467 30.7254C14.6467 33.1264 16.5931 35.0728 18.9942 35.0728Z" fill="url(#paint1_linear_354_1303)"/>
<path d="M18.9942 35.0728C21.3952 35.0728 23.3416 33.1264 23.3416 30.7254C23.3416 28.3243 21.3952 26.3779 18.9942 26.3779C16.5931 26.3779 14.6467 28.3243 14.6467 30.7254C14.6467 33.1264 16.5931 35.0728 18.9942 35.0728Z" fill="url(#paint2_radial_354_1303)"/>
<g filter="url(#filter0_i_354_1303)">
<path d="M20.4215 3.41046C20.4215 2.62083 19.7814 1.98071 18.9918 1.98071C18.2021 1.98071 17.562 2.62083 17.562 3.41046V5.72965C17.562 6.51928 18.2021 7.1594 18.9918 7.1594C19.7814 7.1594 20.4215 6.51928 20.4215 5.72965V3.41046Z" fill="url(#paint3_radial_354_1303)"/>
</g>
<g filter="url(#filter1_iii_354_1303)">
<path d="M9.46568 12.2086C9.89264 10.0705 11.0421 8.14436 12.7211 6.75338C14.4 5.3624 16.5064 4.59129 18.6866 4.56946H19.2958C21.4762 4.59102 23.5829 5.36201 25.2621 6.75301C26.9413 8.14401 28.0909 10.0703 28.5179 12.2086L30.7267 23.2726C30.8858 24.0682 31.2468 24.8092 31.7729 25.4267L33.2454 27.1498C33.9791 28.0098 34.382 29.1032 34.3818 30.2337V31.8083C34.3818 32.0445 34.288 32.2711 34.1209 32.4381C33.9539 32.6051 33.7274 32.699 33.4912 32.699H4.49243C4.25622 32.699 4.02969 32.6051 3.86266 32.4381C3.69564 32.2711 3.60181 32.0445 3.60181 31.8083V30.2337C3.60158 29.1032 4.00453 28.0098 4.73824 27.1498L6.21074 25.4267C6.73729 24.8097 7.09706 24.0681 7.25574 23.2726L9.46568 12.2086Z" fill="url(#paint4_linear_354_1303)"/>
</g>
<path d="M9.46568 12.2086C9.89264 10.0705 11.0421 8.14436 12.7211 6.75338C14.4 5.3624 16.5064 4.59129 18.6866 4.56946H19.2958C21.4762 4.59102 23.5829 5.36201 25.2621 6.75301C26.9413 8.14401 28.0909 10.0703 28.5179 12.2086L30.7267 23.2726C30.8858 24.0682 31.2468 24.8092 31.7729 25.4267L33.2454 27.1498C33.9791 28.0098 34.382 29.1032 34.3818 30.2337V31.8083C34.3818 32.0445 34.288 32.2711 34.1209 32.4381C33.9539 32.6051 33.7274 32.699 33.4912 32.699H4.49243C4.25622 32.699 4.02969 32.6051 3.86266 32.4381C3.69564 32.2711 3.60181 32.0445 3.60181 31.8083V30.2337C3.60158 29.1032 4.00453 28.0098 4.73824 27.1498L6.21074 25.4267C6.73729 24.8097 7.09706 24.0681 7.25574 23.2726L9.46568 12.2086Z" fill="url(#paint5_linear_354_1303)"/>
<path d="M9.46568 12.2086C9.89264 10.0705 11.0421 8.14436 12.7211 6.75338C14.4 5.3624 16.5064 4.59129 18.6866 4.56946H19.2958C21.4762 4.59102 23.5829 5.36201 25.2621 6.75301C26.9413 8.14401 28.0909 10.0703 28.5179 12.2086L30.7267 23.2726C30.8858 24.0682 31.2468 24.8092 31.7729 25.4267L33.2454 27.1498C33.9791 28.0098 34.382 29.1032 34.3818 30.2337V31.8083C34.3818 32.0445 34.288 32.2711 34.1209 32.4381C33.9539 32.6051 33.7274 32.699 33.4912 32.699H4.49243C4.25622 32.699 4.02969 32.6051 3.86266 32.4381C3.69564 32.2711 3.60181 32.0445 3.60181 31.8083V30.2337C3.60158 29.1032 4.00453 28.0098 4.73824 27.1498L6.21074 25.4267C6.73729 24.8097 7.09706 24.0681 7.25574 23.2726L9.46568 12.2086Z" fill="url(#paint6_radial_354_1303)"/>
<g filter="url(#filter2_f_354_1303)">
<path d="M8.87175 24.8424L7.01807 27.3658H31.9556L29.9487 24.8424H8.87175Z" fill="url(#paint7_linear_354_1303)"/>
</g>
<g filter="url(#filter3_f_354_1303)">
<path d="M19.9309 10.609C19.9311 9.95142 20.1722 9.31665 20.6088 8.82484C21.0454 8.33303 21.6471 8.01829 22.3001 7.94018C22.9531 7.86207 23.612 8.026 24.1523 8.40095C24.6925 8.77591 25.0766 9.33588 25.2319 9.97492L28.8372 24.8424H19.9309V10.609Z" fill="url(#paint8_linear_354_1303)"/>
</g>
<defs>
<filter id="filter0_i_354_1303" x="17.562" y="1.98071" width="3.05962" height="5.17871" filterUnits="userSpaceOnUse" color-interpolation-filters="sRGB">
<feFlood flood-opacity="0" result="BackgroundImageFix"/>
<feBlend mode="normal" in="SourceGraphic" in2="BackgroundImageFix" result="shape"/>
<feColorMatrix in="SourceAlpha" type="matrix" values="0 0 0 0 0 0 0 0 0 0 0 0 0 0 0 0 0 0 127 0" result="hardAlpha"/>
<feOffset dx="0.2"/>
<feGaussianBlur stdDeviation="0.25"/>
<feComposite in2="hardAlpha" operator="arithmetic" k2="-1" k3="1"/>
<feColorMatrix type="matrix" values="0 0 0 0 0.87451 0 0 0 0 0.564706 0 0 0 0 0.341176 0 0 0 1 0"/>
<feBlend mode="normal" in2="shape" result="effect1_innerShadow_354_1303"/>
</filter>
<filter id="filter1_iii_354_1303" x="-0.398193" y="4.56946" width="35.78" height="28.1295" filterUnits="userSpaceOnUse" color-interpolation-filters="sRGB">
<feFlood flood-opacity="0" result="BackgroundImageFix"/>
<feBlend mode="normal" in="SourceGraphic" in2="BackgroundImageFix" result="shape"/>
<feColorMatrix in="SourceAlpha" type="matrix" values="0 0 0 0 0 0 0 0 0 0 0 0 0 0 0 0 0 0 127 0" result="hardAlpha"/>
<feOffset dx="-4"/>
<feGaussianBlur stdDeviation="2"/>
<feComposite in2="hardAlpha" operator="arithmetic" k2="-1" k3="1"/>
<feColorMatrix type="matrix" values="0 0 0 0 1 0 0 0 0 0.905882 0 0 0 0 0.392157 0 0 0 1 0"/>
<feBlend mode="normal" in2="shape" result="effect1_innerShadow_354_1303"/>
<feColorMatrix in="SourceAlpha" type="matrix" values="0 0 0 0 0 0 0 0 0 0 0 0 0 0 0 0 0 0 127 0" result="hardAlpha"/>
<feOffset dx="-0.5"/>
<feGaussianBlur stdDeviation="0.5"/>
<feComposite in2="hardAlpha" operator="arithmetic" k2="-1" k3="1"/>
<feColorMatrix type="matrix" values="0 0 0 0 0.996078 0 0 0 0 0.866667 0 0 0 0 0.462745 0 0 0 1 0"/>
<feBlend mode="normal" in2="effect1_innerShadow_354_1303" result="effect2_innerShadow_354_1303"/>
<feColorMatrix in="SourceAlpha" type="matrix" values="0 0 0 0 0 0 0 0 0 0 0 0 0 0 0 0 0 0 127 0" result="hardAlpha"/>
<feOffset dx="1"/>
<feGaussianBlur stdDeviation="1"/>
<feComposite in2="hardAlpha" operator="arithmetic" k2="-1" k3="1"/>
<feColorMatrix type="matrix" values="0 0 0 0 0.917647 0 0 0 0 0.572549 0 0 0 0 0.32549 0 0 0 1 0"/>
<feBlend mode="normal" in2="effect2_innerShadow_354_1303" result="effect3_innerShadow_354_1303"/>
</filter>
<filter id="filter2_f_354_1303" x="5.01807" y="22.8424" width="28.9375" height="6.52344" filterUnits="userSpaceOnUse" color-interpolation-filters="sRGB">
<feFlood flood-opacity="0" result="BackgroundImageFix"/>
<feBlend mode="normal" in="SourceGraphic" in2="BackgroundImageFix" result="shape"/>
<feGaussianBlur stdDeviation="1" result="effect1_foregroundBlur_354_1303"/>
</filter>
<filter id="filter3_f_354_1303" x="17.9309" y="5.92114" width="12.9062" height="20.9213" filterUnits="userSpaceOnUse" color-interpolation-filters="sRGB">
<feFlood flood-opacity="0" result="BackgroundImageFix"/>
<feBlend mode="normal" in="SourceGraphic" in2="BackgroundImageFix" result="shape"/>
<feGaussianBlur stdDeviation="1" result="effect1_foregroundBlur_354_1303"/>
</filter>
<radialGradient id="paint0_radial_354_1303" cx="0" cy="0" r="1" gradientUnits="userSpaceOnUse" gradientTransform="translate(21.0818 34.6393) rotate(-126.512) scale(3.50902 4.84612)">
<stop stop-color="#FFC26D"/>
<stop offset="1" stop-color="#F68D61"/>
</radialGradient>
<linearGradient id="paint1_linear_354_1303" x1="18.113" y1="31.7822" x2="18.4099" y2="33.8972" gradientUnits="userSpaceOnUse">
<stop offset="0.186" stop-color="#E57356"/>
<stop offset="1" stop-color="#E57356" stop-opacity="0"/>
</linearGradient>
<radialGradient id="paint2_radial_354_1303" cx="0" cy="0" r="1" gradientUnits="userSpaceOnUse" gradientTransform="translate(20.0451 31.2645) rotate(135) scale(4.82821 7.96701)">
<stop offset="0.441" stop-color="#EA8059" stop-opacity="0"/>
<stop offset="1" stop-color="#C27068"/>
</radialGradient>
<radialGradient id="paint3_radial_354_1303" cx="0" cy="0" r="1" gradientUnits="userSpaceOnUse" gradientTransform="translate(19.9311 4.56946) rotate(-90) scale(2.58953 1.55859)">
<stop stop-color="#FFE957"/>
<stop offset="1" stop-color="#F7A630"/>
</radialGradient>
<linearGradient id="paint4_linear_354_1303" x1="21.9214" y1="30.5199" x2="5.86399" y2="30.5199" gradientUnits="userSpaceOnUse">
<stop stop-color="#FCB949"/>
<stop offset="1" stop-color="#E28C37"/>
</linearGradient>
<linearGradient id="paint5_linear_354_1303" x1="21.4903" y1="33.0065" x2="21.4903" y2="29.444" gradientUnits="userSpaceOnUse">
<stop stop-color="#D7737D"/>
<stop offset="0.302" stop-color="#FCA162" stop-opacity="0"/>
</linearGradient>
<radialGradient id="paint6_radial_354_1303" cx="0" cy="0" r="1" gradientUnits="userSpaceOnUse" gradientTransform="translate(26.1655 16.9016) rotate(146.139) scale(27.1736 26.0676)">
<stop offset="0.67" stop-color="#E69136" stop-opacity="0"/>
<stop offset="0.977" stop-color="#CF7D44"/>
</radialGradient>
<linearGradient id="paint7_linear_354_1303" x1="7.38738" y1="27.3658" x2="31.2122" y2="27.3658" gradientUnits="userSpaceOnUse">
<stop offset="0.277" stop-color="#F5A43C"/>
<stop offset="1" stop-color="#FFE154"/>
</linearGradient>
<linearGradient id="paint8_linear_354_1303" x1="29.8845" y1="21.5887" x2="18.4465" y2="21.5887" gradientUnits="userSpaceOnUse">
<stop offset="0.118" stop-color="#FFEF6D"/>
<stop offset="1" stop-color="#FFEF6D" stop-opacity="0"/>
</linearGradient>
</defs>
</svg>
