<svg width="50" height="50" viewBox="0 0 50 50" fill="none" xmlns="http://www.w3.org/2000/svg">
	<circle cx="25" cy="25" r="23" fill="#D98235" />
	<circle cx="25" cy="25" r="24.25" stroke="#D98235" stroke-width="1.5" />
	<path d="M25 10C25.5189 10 26.0166 10.2061 26.3835 10.5731C26.7504 10.94 26.9565 11.4376 26.9565 11.9565V23.0435H38.0435C38.5624 23.0435 39.06 23.2496 39.4269 23.6165C39.7939 23.9834 40 24.4811 40 25C40 25.5189 39.7939 26.0166 39.4269 26.3835C39.06 26.7504 38.5624 26.9565 38.0435 26.9565H26.9565V38.0435C26.9565 38.5624 26.7504 39.06 26.3835 39.4269C26.0166 39.7939 25.5189 40 25 40C24.4811 40 23.9834 39.7939 23.6165 39.4269C23.2496 39.06 23.0435 38.5624 23.0435 38.0435V26.9565H11.9565C11.4376 26.9565 10.94 26.7504 10.5731 26.3835C10.2061 26.0166 10 25.5189 10 25C10 24.4811 10.2061 23.9834 10.5731 23.6165C10.94 23.2496 11.4376 23.0435 11.9565 23.0435H23.0435V11.9565C23.0435 11.4376 23.2496 10.94 23.6165 10.5731C23.9834 10.2061 24.4811 10 25 10Z" fill="white" />
</svg>
