<svg width="56" height="54" viewBox="0 0 56 54" fill="none" xmlns="http://www.w3.org/2000/svg">
	<path d="M2 26.3769C2 16.9762 2 12.2746 5.00513 9.35549C8.00769 6.43384 12.8436 6.43384 22.5128 6.43384H32.7692C42.4385 6.43384 47.2744 6.43384 50.2769 9.35549C53.2821 12.2746 53.2821 16.9762 53.2821 26.3769V31.3626C53.2821 40.7633 53.2821 45.4648 50.2769 48.384C47.2744 51.3056 42.4385 51.3056 32.7692 51.3056H22.5128C12.8436 51.3056 8.00769 51.3056 5.00513 48.384C2 45.4648 2 40.7633 2 31.3626V26.3769Z" stroke="#5666BE" stroke-width="3.5" />
	<path d="M14.8213 6.43377V2.69446M40.4623 6.43377V2.69446" stroke="#5666BE" stroke-width="3.5" stroke-linecap="round" />
	<path d="M19.9492 32.6093L23.7954 28.87V38.8415" stroke="#5666BE" stroke-width="3.5" stroke-linecap="round" stroke-linejoin="round" />
	<path d="M3.28125 18.8981H51.9992M30.2043 36.3482V31.3625C30.2043 30.7013 30.4745 30.0672 30.9553 29.5997C31.4362 29.1322 32.0884 28.8696 32.7684 28.8696C33.4485 28.8696 34.1007 29.1322 34.5815 29.5997C35.0624 30.0672 35.3325 30.7013 35.3325 31.3625V36.3482C35.3325 37.0094 35.0624 37.6434 34.5815 38.1109C34.1007 38.5785 33.4485 38.8411 32.7684 38.8411C32.0884 38.8411 31.4362 38.5785 30.9553 38.1109C30.4745 37.6434 30.2043 37.0094 30.2043 36.3482Z" stroke="#5666BE" stroke-width="3.5" stroke-linecap="round" />
</svg>
