<svg width="64" height="64" viewBox="0 0 64 64" fill="none" xmlns="http://www.w3.org/2000/svg">
	<path d="M32 62C48.5685 62 62 48.5685 62 32C62 15.4315 48.5685 2 32 2C15.4315 2 2 15.4315 2 32C2 48.5685 15.4315 62 32 62Z" fill="#98C0D0" />
	<path d="M32.0002 56.0701C45.2937 56.0701 56.0702 45.2935 56.0702 32.0001C56.0702 18.7066 45.2937 7.93005 32.0002 7.93005C18.7067 7.93005 7.93018 18.7066 7.93018 32.0001C7.93018 45.2935 18.7067 56.0701 32.0002 56.0701Z" fill="#FCEBCD" />
	<path d="M25.1502 7.52999C21.9402 8.45999 17.4452 9.88499 12.6352 15.63C7.88521 21.315 6.90521 27.92 6.60021 32.475C6.60021 32.475 3.85521 35.91 3.72521 35.27C2.69021 30.295 4.78021 19.175 10.2452 13.295C16.6052 6.45499 24.8752 4.02999 27.8652 3.57499C28.3802 3.49499 26.1252 7.24999 25.1502 7.52999Z" fill="#C2E3F0" />
	<path d="M32.0001 54.7949C44.5894 54.7949 54.7951 44.5893 54.7951 32C54.7951 19.4106 44.5894 9.20496 32.0001 9.20496C19.4107 9.20496 9.20508 19.4106 9.20508 32C9.20508 44.5893 19.4107 54.7949 32.0001 54.7949Z" fill="white" />
	<path d="M32 17.5V32" stroke="#563428" stroke-width="4" stroke-miterlimit="10" stroke-linecap="round" />
	<path d="M32.0002 34.53C33.3975 34.53 34.5302 33.3973 34.5302 32C34.5302 30.6027 33.3975 29.47 32.0002 29.47C30.6029 29.47 29.4702 30.6027 29.4702 32C29.4702 33.3973 30.6029 34.53 32.0002 34.53Z" fill="#563428" />
	<path d="M21.3848 32.075L31.9998 32" stroke="#563428" stroke-width="6" stroke-miterlimit="10" stroke-linecap="round" />
	<path d="M32 50V52.5M32 11.5V14M14 32H11.5M52.5 32H50" stroke="#6596A3" stroke-width="5" stroke-miterlimit="10" />
	<path d="M23.0001 47.59L21.7501 49.755M42.2501 14.245L41.0001 16.41M41.0001 47.59L42.2501 49.755M21.7501 14.245L23.0001 16.41M47.5901 41L49.7551 42.25M14.2451 21.75L16.4101 23M16.4101 41L14.2451 42.25M49.7551 21.75L47.5901 23" stroke="#B0BEC5" stroke-width="3" stroke-miterlimit="10" />
</svg>
