<svg width="32" height="32" viewBox="0 0 32 32" fill="none" xmlns="http://www.w3.org/2000/svg">
<path d="M16.6667 12.6667V10H19.3333V12.6667H22V15.3333H19.3333V18H16.6667V15.3333H14V12.6667H16.6667Z" fill="#5666BE"/>
<path fill-rule="evenodd" clip-rule="evenodd" d="M18 24C23.5227 24 28 19.5227 28 14C28 8.47733 23.5227 4 18 4C12.4773 4 8 8.47733 8 14C8 16.5507 8.95467 18.878 10.5267 20.6447L9.75467 21.4173L8.618 21.4967L4 26.1147L5.88533 28L10.4747 23.4107L10.58 22.4773L11.4773 21.58C13.29 23.1444 15.6056 24.0035 18 24ZM18 22.6667C22.7867 22.6667 26.6667 18.7867 26.6667 14C26.6667 9.21333 22.7867 5.33333 18 5.33333C13.2133 5.33333 9.33333 9.21333 9.33333 14C9.33333 18.7867 13.2133 22.6667 18 22.6667Z" fill="#5666BE"/>
<path fill-rule="evenodd" clip-rule="evenodd" d="M11.0247 20.2013L11.4427 20.6713L11.912 21.0747C13.4908 22.4376 15.4824 23.2297 17.566 23.3233C12.716 23.1013 8.83067 19.1773 8.672 14.3107C8.74129 16.4895 9.57363 18.5746 11.0247 20.2013ZM10.05 22.0647L8.91333 22.1447L4.94333 26.1147L5.886 27.0573L9.83933 23.104L9.94467 22.1707L10.05 22.0647ZM10.4753 23.4113L5.88533 28L4 26.1147L8.618 21.4967L9.75467 21.4167L10.5267 20.6447C8.896 18.8158 7.99646 16.4502 8 14C8 8.47733 12.4773 4 18 4C23.5227 4 28 8.47733 28 14C28 19.5227 23.5227 24 18 24C15.6056 24.0035 13.29 23.1444 11.4773 21.58L10.58 22.4773L10.4753 23.4113ZM17.3333 13.3333H14.6667V14.6667H17.3333V17.3333H18.6667V14.6667H21.3333V13.3333H18.6667V10.6667H17.3333V13.3333ZM19.3333 10V12.6667H22V15.3333H19.3333V18H16.6667V15.3333H14V12.6667H16.6667V10H19.3333ZM26.6667 14C26.6667 18.7867 22.7867 22.6667 18 22.6667C13.2133 22.6667 9.33333 18.7867 9.33333 14C9.33333 9.21333 13.2133 5.33333 18 5.33333C22.7867 5.33333 26.6667 9.21333 26.6667 14Z" fill="#5666BE"/>
</svg>
