<svg width="19" height="16" viewBox="0 0 19 16" fill="none" xmlns="http://www.w3.org/2000/svg">
	<path d="M2.83427 0.940502L16.1659 0.940502C16.6923 0.939739 17.208 1.08805 17.6536 1.36825C18.0991 1.64846 18.4562 2.04911 18.6834 2.52383C18.9495 3.08709 19.052 3.71376 18.9792 4.33243C18.9064 4.95109 18.6613 5.53687 18.2718 6.023L11.6059 14.098C11.3443 14.3998 11.0209 14.6419 10.6576 14.8078C10.2943 14.9737 9.89952 15.0596 9.5001 15.0596C9.10069 15.0596 8.70594 14.9737 8.34261 14.8078C7.97928 14.6419 7.65586 14.3998 7.39427 14.098L0.728436 6.023C0.338926 5.53687 0.0938129 4.95109 0.0210304 4.33243C-0.051754 3.71376 0.0507202 3.08709 0.316772 2.52383C0.544046 2.04911 0.901114 1.64846 1.34665 1.36825C1.79218 1.08805 2.30795 0.939739 2.83427 0.940502Z" fill="white" />
</svg>
