<svg width="51" height="51" viewBox="0 0 51 51" fill="none" xmlns="http://www.w3.org/2000/svg">
<circle cx="26" cy="26" r="24.25" stroke="#5666BE" stroke-width="1.5"/>
<circle cx="26" cy="26" r="23" fill="#5666BE"/>
<path d="M25.5 27.0625V13M17.6875 28.625H14.5625C14.1481 28.625 13.7507 28.7896 13.4576 29.0826C13.1646 29.3757 13 29.7731 13 30.1875V36.4375C13 36.8519 13.1646 37.2493 13.4576 37.5424C13.7507 37.8354 14.1481 38 14.5625 38H36.4375C36.8519 38 37.2493 37.8354 37.5424 37.5424C37.8354 37.2493 38 36.8519 38 36.4375V30.1875C38 29.7731 37.8354 29.3757 37.5424 29.0826C37.2493 28.7896 36.8519 28.625 36.4375 28.625H33.3125M31.75 20.8125L25.5 28.625L19.25 20.8125M33.3125 33.3125H33.3281" stroke="white" stroke-width="2" stroke-linecap="round" stroke-linejoin="round"/>
</svg>
