<svg width="32" height="32" viewBox="0 0 32 32" fill="none" xmlns="http://www.w3.org/2000/svg">
<g clip-path="url(#clip0_789_2684)">
<path d="M12.308 0.231445C10.722 0.231284 9.15153 0.543527 7.68623 1.15035C6.22092 1.75717 4.88949 2.64667 3.76797 3.76808C2.64645 4.88948 1.75681 6.22082 1.14984 7.68607C0.542872 9.15131 0.230469 10.7218 0.230469 12.3078C0.230307 13.8938 0.542592 15.4644 1.14949 16.9298C1.75638 18.3952 2.646 19.7267 3.76754 20.8482C4.88907 21.9698 6.22055 22.8594 7.68594 23.4663C9.15133 24.0732 10.7219 24.3855 12.308 24.3853C15.1265 24.3853 17.7148 23.3871 19.7702 21.7699L20.8471 22.8468C20.6259 23.2765 20.5476 23.7655 20.6236 24.2427C20.6995 24.72 20.9257 25.1605 21.2692 25.5004L26.9234 31.1927C27.8009 32.0714 29.2372 32.0714 30.116 31.1927L31.1929 30.1158C31.6146 29.6915 31.8512 29.1176 31.8512 28.5194C31.8512 27.9213 31.6146 27.3474 31.1929 26.9231L25.5006 21.269C25.1584 20.9278 24.7152 20.7061 24.2369 20.6369C23.7586 20.5677 23.2707 20.6547 22.8459 20.885L21.7689 19.8081C23.1786 18.0292 24.0584 15.8891 24.3075 13.6331C24.5566 11.3771 24.1649 9.09658 23.1773 7.05302C22.1896 5.00946 20.6461 3.28558 18.7237 2.07905C16.8012 0.872518 14.5777 0.232175 12.308 0.231445ZM12.308 2.4616C14.9194 2.4616 17.4238 3.49896 19.2703 5.34547C21.1168 7.19198 22.1542 9.69639 22.1542 12.3078C22.1542 14.9191 21.1168 17.4235 19.2703 19.27C17.4238 21.1165 14.9194 22.1539 12.308 22.1539C9.69664 22.1539 7.19224 21.1165 5.34573 19.27C3.49921 17.4235 2.46185 14.9191 2.46185 12.3078C2.46185 9.69639 3.49921 7.19198 5.34573 5.34547C7.19224 3.49896 9.69664 2.4616 12.308 2.4616ZM6.07662 9.19268C5.42017 10.2559 5.07402 11.4816 5.07724 12.7311C5.07578 13.6155 5.24889 14.4914 5.58664 15.3087C5.92439 16.126 6.42014 16.8687 7.04547 17.494C7.6708 18.1193 8.41341 18.6151 9.23072 18.9528C10.048 19.2906 10.924 19.4637 11.8083 19.4622C13.1986 19.4594 14.5544 19.0297 15.6926 18.2314C15.3858 18.2599 15.0777 18.2722 14.7695 18.2684C13.6273 18.2713 12.4957 18.0485 11.4397 17.6127C10.3838 17.177 9.42442 16.5369 8.61664 15.7292C7.80886 14.9216 7.16863 13.9622 6.73273 12.9064C6.29684 11.8505 6.07386 10.719 6.07662 9.57668C6.07662 9.44868 6.07047 9.32068 6.07662 9.19268Z" fill="#5666BE"/>
</g>
<defs>
<clipPath id="clip0_789_2684">
<rect width="32" height="32" fill="white"/>
</clipPath>
</defs>
</svg>
