<svg width="100" height="100" viewBox="0 0 100 100" fill="none" xmlns="http://www.w3.org/2000/svg">
<path d="M90.625 100H9.375C4.1875 100 0 95.8125 0 90.625V15.625C0 10.4375 4.1875 6.25 9.375 6.25H90.625C95.8125 6.25 100 10.4375 100 15.625V90.625C100 95.8125 95.8125 100 90.625 100ZM9.375 12.5C7.625 12.5 6.25 13.875 6.25 15.625V90.625C6.25 92.375 7.625 93.75 9.375 93.75H90.625C92.375 93.75 93.75 92.375 93.75 90.625V15.625C93.75 13.875 92.375 12.5 90.625 12.5H9.375Z" fill="white"/>
<path d="M28.125 25C26.375 25 25 23.625 25 21.875V3.125C25 1.375 26.375 0 28.125 0C29.875 0 31.25 1.375 31.25 3.125V21.875C31.25 23.625 29.875 25 28.125 25ZM71.875 25C70.125 25 68.75 23.625 68.75 21.875V3.125C68.75 1.375 70.125 0 71.875 0C73.625 0 75 1.375 75 3.125V21.875C75 23.625 73.625 25 71.875 25ZM96.875 37.5H3.125C1.375 37.5 0 36.125 0 34.375C0 32.625 1.375 31.25 3.125 31.25H96.875C98.625 31.25 100 32.625 100 34.375C100 36.125 98.625 37.5 96.875 37.5Z" fill="white"/>
<path d="M69.4626 46.5374C68.4781 45.553 67.1428 45 65.7506 45C64.3584 45 63.0231 45.553 62.0386 46.5374L59.7246 48.8514L67.1486 56.2754L69.4626 53.9614C70.447 52.9769 71 51.6416 71 50.2494C71 48.8572 70.447 47.5219 69.4626 46.5374ZM65.0266 58.3974L57.6026 50.9734L33.3025 75.2735C32.0682 76.5071 31.1609 78.029 30.6625 79.7015L29.0625 85.0715C28.9853 85.3306 28.9795 85.6058 29.0458 85.868C29.1122 86.1301 29.2481 86.3695 29.4393 86.5607C29.6305 86.7519 29.8699 86.8878 30.132 86.9542C30.3942 87.0205 30.6694 87.0147 30.9285 86.9375L36.2985 85.3375C37.971 84.8391 39.4929 83.9318 40.7265 82.6975L65.0266 58.3974Z" fill="white"/>
</svg>
