<svg width="36" height="41" viewBox="0 0 36 41" fill="none" xmlns="http://www.w3.org/2000/svg">
<path d="M28.3288 14.8453V12.6763C28.3288 9.56957 28.3288 8.01528 27.9141 6.77479C27.5843 5.7889 27.0684 4.89359 26.4012 4.14955C25.734 3.40551 24.9311 2.83014 24.047 2.46243C22.9347 2 21.5409 2 18.755 2C13.8792 2 11.4405 2 9.49382 2.80926C7.94614 3.45251 6.54061 4.4594 5.37256 5.76165C4.2045 7.06391 3.30124 8.63105 2.72404 10.3568C2 12.5277 2 15.2472 2 20.6845V25.3546C2 30.9882 2 33.8032 3.31315 35.7594C3.68929 36.3197 4.13536 36.8171 4.63781 37.2366C6.39197 38.7009 8.91623 38.7009 13.9681 38.7009H20.9238" stroke="#5666BE" stroke-width="4" stroke-linecap="round" stroke-linejoin="round"/>
<path d="M15.1644 24.6316H16.5466C17.636 24.6316 18.1807 24.6316 18.6167 24.9528C19.0545 25.2721 19.298 25.8483 19.7851 26.9989L22.4048 33.1958L26.025 20.3505L28.6447 26.5474C29.1318 27.698 29.3753 28.2742 29.813 28.5935C30.2508 28.9128 30.7938 28.9146 31.8831 28.9146H33.2654M2 20.3505C2 18.7284 2.57784 17.1727 3.6064 16.0257C4.63497 14.8786 6.03 14.2343 7.48461 14.2343H9.31281C10.1636 14.2343 10.5881 14.2343 10.937 14.1297C11.4022 13.99 11.8263 13.7165 12.1668 13.3365C12.5073 12.9564 12.7523 12.4832 12.8771 11.9643C12.9709 11.5753 12.9709 11.1018 12.9709 10.1531V8.11621C12.9709 6.49409 13.5487 4.93841 14.5773 3.7914C15.6058 2.64439 17.0009 2 18.4555 2" stroke="#5666BE" stroke-width="4" stroke-linecap="round" stroke-linejoin="round"/>
</svg>
