<svg width="30" height="30" viewBox="0 0 30 30" fill="none" xmlns="http://www.w3.org/2000/svg">
<rect width="30" height="30" rx="15" fill="#D98235"/>
<mask id="path-2-inside-1_1048_556" fill="white">
<path d="M22.0588 7.41176H19.7646V6.52941C19.7646 6.389 19.7089 6.25434 19.6096 6.15506C19.5103 6.05578 19.3756 6 19.2352 6C19.0948 6 18.9602 6.05578 18.8609 6.15506C18.7616 6.25434 18.7058 6.389 18.7058 6.52941V7.41176H11.294V6.52941C11.294 6.389 11.2383 6.25434 11.139 6.15506C11.0397 6.05578 10.905 6 10.7646 6C10.6242 6 10.4896 6.05578 10.3903 6.15506C10.291 6.25434 10.2352 6.389 10.2352 6.52941V7.41176H7.9411C7.61348 7.41176 7.29928 7.54191 7.06762 7.77357C6.83596 8.00524 6.70581 8.31944 6.70581 8.64706V22.7647C6.70581 23.0923 6.83596 23.4065 7.06762 23.6382C7.29928 23.8699 7.61348 24 7.9411 24H22.0588C22.3864 24 22.7006 23.8699 22.9322 23.6382C23.1639 23.4065 23.294 23.0923 23.294 22.7647V8.64706C23.294 8.31944 23.1639 8.00524 22.9322 7.77357C22.7006 7.54191 22.3864 7.41176 22.0588 7.41176ZM7.9411 8.47059H10.2352V9.35294C10.2352 9.49335 10.291 9.62801 10.3903 9.72729C10.4896 9.82658 10.6242 9.88235 10.7646 9.88235C10.905 9.88235 11.0397 9.82658 11.139 9.72729C11.2383 9.62801 11.294 9.49335 11.294 9.35294V8.47059H18.7058V9.35294C18.7058 9.49335 18.7616 9.62801 18.8609 9.72729C18.9602 9.82658 19.0948 9.88235 19.2352 9.88235C19.3756 9.88235 19.5103 9.82658 19.6096 9.72729C19.7089 9.62801 19.7646 9.49335 19.7646 9.35294V8.47059H22.0588C22.1056 8.47059 22.1504 8.48918 22.1835 8.52227C22.2166 8.55537 22.2352 8.60026 22.2352 8.64706V11.6471H7.76463V8.64706C7.76463 8.60026 7.78323 8.55537 7.81632 8.52227C7.84942 8.48918 7.8943 8.47059 7.9411 8.47059ZM22.0588 22.9412H7.9411C7.8943 22.9412 7.84942 22.9226 7.81632 22.8895C7.78323 22.8564 7.76463 22.8115 7.76463 22.7647V12.7059H22.2352V22.7647C22.2352 22.8115 22.2166 22.8564 22.1835 22.8895C22.1504 22.9226 22.1056 22.9412 22.0588 22.9412ZM15.8823 16.0588C15.8823 16.2333 15.8305 16.4039 15.7336 16.549C15.6366 16.6941 15.4988 16.8072 15.3376 16.874C15.1764 16.9408 14.999 16.9583 14.8278 16.9242C14.6566 16.8902 14.4994 16.8061 14.376 16.6827C14.2526 16.5593 14.1686 16.4021 14.1345 16.231C14.1005 16.0598 14.118 15.8824 14.1847 15.7212C14.2515 15.5599 14.3646 15.4221 14.5097 15.3252C14.6548 15.2282 14.8254 15.1765 14.9999 15.1765C15.2339 15.1765 15.4584 15.2694 15.6238 15.4349C15.7893 15.6004 15.8823 15.8248 15.8823 16.0588ZM19.7646 16.0588C19.7646 16.2333 19.7129 16.4039 19.6159 16.549C19.519 16.6941 19.3812 16.8072 19.2199 16.874C19.0587 16.9408 18.8813 16.9583 18.7101 16.9242C18.539 16.8902 18.3818 16.8061 18.2584 16.6827C18.135 16.5593 18.0509 16.4021 18.0169 16.231C17.9828 16.0598 18.0003 15.8824 18.0671 15.7212C18.1339 15.5599 18.247 15.4221 18.3921 15.3252C18.5372 15.2282 18.7078 15.1765 18.8823 15.1765C19.1163 15.1765 19.3407 15.2694 19.5062 15.4349C19.6717 15.6004 19.7646 15.8248 19.7646 16.0588ZM11.9999 19.5882C11.9999 19.7627 11.9482 19.9333 11.8512 20.0784C11.7543 20.2235 11.6165 20.3366 11.4552 20.4034C11.294 20.4702 11.1166 20.4877 10.9454 20.4536C10.7743 20.4196 10.6171 20.3356 10.4937 20.2122C10.3703 20.0888 10.2862 19.9315 10.2522 19.7604C10.2181 19.5892 10.2356 19.4118 10.3024 19.2506C10.3692 19.0893 10.4823 18.9515 10.6274 18.8546C10.7725 18.7576 10.9431 18.7059 11.1176 18.7059C11.3516 18.7059 11.576 18.7988 11.7415 18.9643C11.907 19.1298 11.9999 19.3542 11.9999 19.5882ZM15.8823 19.5882C15.8823 19.7627 15.8305 19.9333 15.7336 20.0784C15.6366 20.2235 15.4988 20.3366 15.3376 20.4034C15.1764 20.4702 14.999 20.4877 14.8278 20.4536C14.6566 20.4196 14.4994 20.3356 14.376 20.2122C14.2526 20.0888 14.1686 19.9315 14.1345 19.7604C14.1005 19.5892 14.118 19.4118 14.1847 19.2506C14.2515 19.0893 14.3646 18.9515 14.5097 18.8546C14.6548 18.7576 14.8254 18.7059 14.9999 18.7059C15.2339 18.7059 15.4584 18.7988 15.6238 18.9643C15.7893 19.1298 15.8823 19.3542 15.8823 19.5882ZM19.7646 19.5882C19.7646 19.7627 19.7129 19.9333 19.6159 20.0784C19.519 20.2235 19.3812 20.3366 19.2199 20.4034C19.0587 20.4702 18.8813 20.4877 18.7101 20.4536C18.539 20.4196 18.3818 20.3356 18.2584 20.2122C18.135 20.0888 18.0509 19.9315 18.0169 19.7604C17.9828 19.5892 18.0003 19.4118 18.0671 19.2506C18.1339 19.0893 18.247 18.9515 18.3921 18.8546C18.5372 18.7576 18.7078 18.7059 18.8823 18.7059C19.1163 18.7059 19.3407 18.7988 19.5062 18.9643C19.6717 19.1298 19.7646 19.3542 19.7646 19.5882Z"/>
</mask>
<path d="M22.0588 7.41176H19.7646V6.52941C19.7646 6.389 19.7089 6.25434 19.6096 6.15506C19.5103 6.05578 19.3756 6 19.2352 6C19.0948 6 18.9602 6.05578 18.8609 6.15506C18.7616 6.25434 18.7058 6.389 18.7058 6.52941V7.41176H11.294V6.52941C11.294 6.389 11.2383 6.25434 11.139 6.15506C11.0397 6.05578 10.905 6 10.7646 6C10.6242 6 10.4896 6.05578 10.3903 6.15506C10.291 6.25434 10.2352 6.389 10.2352 6.52941V7.41176H7.9411C7.61348 7.41176 7.29928 7.54191 7.06762 7.77357C6.83596 8.00524 6.70581 8.31944 6.70581 8.64706V22.7647C6.70581 23.0923 6.83596 23.4065 7.06762 23.6382C7.29928 23.8699 7.61348 24 7.9411 24H22.0588C22.3864 24 22.7006 23.8699 22.9322 23.6382C23.1639 23.4065 23.294 23.0923 23.294 22.7647V8.64706C23.294 8.31944 23.1639 8.00524 22.9322 7.77357C22.7006 7.54191 22.3864 7.41176 22.0588 7.41176ZM7.9411 8.47059H10.2352V9.35294C10.2352 9.49335 10.291 9.62801 10.3903 9.72729C10.4896 9.82658 10.6242 9.88235 10.7646 9.88235C10.905 9.88235 11.0397 9.82658 11.139 9.72729C11.2383 9.62801 11.294 9.49335 11.294 9.35294V8.47059H18.7058V9.35294C18.7058 9.49335 18.7616 9.62801 18.8609 9.72729C18.9602 9.82658 19.0948 9.88235 19.2352 9.88235C19.3756 9.88235 19.5103 9.82658 19.6096 9.72729C19.7089 9.62801 19.7646 9.49335 19.7646 9.35294V8.47059H22.0588C22.1056 8.47059 22.1504 8.48918 22.1835 8.52227C22.2166 8.55537 22.2352 8.60026 22.2352 8.64706V11.6471H7.76463V8.64706C7.76463 8.60026 7.78323 8.55537 7.81632 8.52227C7.84942 8.48918 7.8943 8.47059 7.9411 8.47059ZM22.0588 22.9412H7.9411C7.8943 22.9412 7.84942 22.9226 7.81632 22.8895C7.78323 22.8564 7.76463 22.8115 7.76463 22.7647V12.7059H22.2352V22.7647C22.2352 22.8115 22.2166 22.8564 22.1835 22.8895C22.1504 22.9226 22.1056 22.9412 22.0588 22.9412ZM15.8823 16.0588C15.8823 16.2333 15.8305 16.4039 15.7336 16.549C15.6366 16.6941 15.4988 16.8072 15.3376 16.874C15.1764 16.9408 14.999 16.9583 14.8278 16.9242C14.6566 16.8902 14.4994 16.8061 14.376 16.6827C14.2526 16.5593 14.1686 16.4021 14.1345 16.231C14.1005 16.0598 14.118 15.8824 14.1847 15.7212C14.2515 15.5599 14.3646 15.4221 14.5097 15.3252C14.6548 15.2282 14.8254 15.1765 14.9999 15.1765C15.2339 15.1765 15.4584 15.2694 15.6238 15.4349C15.7893 15.6004 15.8823 15.8248 15.8823 16.0588ZM19.7646 16.0588C19.7646 16.2333 19.7129 16.4039 19.6159 16.549C19.519 16.6941 19.3812 16.8072 19.2199 16.874C19.0587 16.9408 18.8813 16.9583 18.7101 16.9242C18.539 16.8902 18.3818 16.8061 18.2584 16.6827C18.135 16.5593 18.0509 16.4021 18.0169 16.231C17.9828 16.0598 18.0003 15.8824 18.0671 15.7212C18.1339 15.5599 18.247 15.4221 18.3921 15.3252C18.5372 15.2282 18.7078 15.1765 18.8823 15.1765C19.1163 15.1765 19.3407 15.2694 19.5062 15.4349C19.6717 15.6004 19.7646 15.8248 19.7646 16.0588ZM11.9999 19.5882C11.9999 19.7627 11.9482 19.9333 11.8512 20.0784C11.7543 20.2235 11.6165 20.3366 11.4552 20.4034C11.294 20.4702 11.1166 20.4877 10.9454 20.4536C10.7743 20.4196 10.6171 20.3356 10.4937 20.2122C10.3703 20.0888 10.2862 19.9315 10.2522 19.7604C10.2181 19.5892 10.2356 19.4118 10.3024 19.2506C10.3692 19.0893 10.4823 18.9515 10.6274 18.8546C10.7725 18.7576 10.9431 18.7059 11.1176 18.7059C11.3516 18.7059 11.576 18.7988 11.7415 18.9643C11.907 19.1298 11.9999 19.3542 11.9999 19.5882ZM15.8823 19.5882C15.8823 19.7627 15.8305 19.9333 15.7336 20.0784C15.6366 20.2235 15.4988 20.3366 15.3376 20.4034C15.1764 20.4702 14.999 20.4877 14.8278 20.4536C14.6566 20.4196 14.4994 20.3356 14.376 20.2122C14.2526 20.0888 14.1686 19.9315 14.1345 19.7604C14.1005 19.5892 14.118 19.4118 14.1847 19.2506C14.2515 19.0893 14.3646 18.9515 14.5097 18.8546C14.6548 18.7576 14.8254 18.7059 14.9999 18.7059C15.2339 18.7059 15.4584 18.7988 15.6238 18.9643C15.7893 19.1298 15.8823 19.3542 15.8823 19.5882ZM19.7646 19.5882C19.7646 19.7627 19.7129 19.9333 19.6159 20.0784C19.519 20.2235 19.3812 20.3366 19.2199 20.4034C19.0587 20.4702 18.8813 20.4877 18.7101 20.4536C18.539 20.4196 18.3818 20.3356 18.2584 20.2122C18.135 20.0888 18.0509 19.9315 18.0169 19.7604C17.9828 19.5892 18.0003 19.4118 18.0671 19.2506C18.1339 19.0893 18.247 18.9515 18.3921 18.8546C18.5372 18.7576 18.7078 18.7059 18.8823 18.7059C19.1163 18.7059 19.3407 18.7988 19.5062 18.9643C19.6717 19.1298 19.7646 19.3542 19.7646 19.5882Z" fill="white" stroke="white" stroke-width="5" mask="url(#path-2-inside-1_1048_556)"/>
</svg>
