<svg width="20" height="21" viewBox="0 0 20 21" fill="none" xmlns="http://www.w3.org/2000/svg">
<g clip-path="url(#clip0_1048_1734)">
<rect y="0.5" width="20" height="20" rx="2" fill="#D98235"/>
<path d="M19.2858 15.5001V18.3572C19.2858 18.7361 19.1353 19.0995 18.8674 19.3674C18.5995 19.6353 18.2361 19.7858 17.8572 19.7858H15.0001M15.0001 1.21436H17.8572C18.2361 1.21436 18.5995 1.36487 18.8674 1.63277C19.1353 1.90068 19.2858 2.26405 19.2858 2.64293V5.50007M0.714355 5.50007V2.64293C0.714355 2.26405 0.864865 1.90068 1.13277 1.63277C1.40068 1.36487 1.76405 1.21436 2.14293 1.21436H5.00007M5.00007 19.7858H2.14293C1.76405 19.7858 1.40068 19.6353 1.13277 19.3674C0.864865 19.0995 0.714355 18.7361 0.714355 18.3572V15.5001" stroke="white" stroke-width="2" stroke-linecap="round" stroke-linejoin="round"/>
<path d="M4.64282 9.42878C4.64282 9.99159 4.75368 10.5489 4.96905 11.0689C5.18443 11.5888 5.50011 12.0613 5.89808 12.4592C6.29604 12.8572 6.7685 13.1729 7.28846 13.3883C7.80843 13.6036 8.36573 13.7145 8.92854 13.7145C9.49134 13.7145 10.0486 13.6036 10.5686 13.3883C11.0886 13.1729 11.561 12.8572 11.959 12.4592C12.357 12.0613 12.6726 11.5888 12.888 11.0689C13.1034 10.5489 13.2143 9.99159 13.2143 9.42878C13.2143 8.86597 13.1034 8.30868 12.888 7.78871C12.6726 7.26874 12.357 6.79629 11.959 6.39832C11.561 6.00036 11.0886 5.68467 10.5686 5.4693C10.0486 5.25392 9.49134 5.14307 8.92854 5.14307C8.36573 5.14307 7.80843 5.25392 7.28846 5.4693C6.7685 5.68467 6.29604 6.00036 5.89808 6.39832C5.50011 6.79629 5.18443 7.26874 4.96905 7.78871C4.75368 8.30868 4.64282 8.86597 4.64282 9.42878Z" stroke="white" stroke-width="2"/>
<path d="M12.1428 12.6431L15 15.5002" stroke="white" stroke-width="2" stroke-linecap="round" stroke-linejoin="round"/>
</g>
<rect x="0.5" y="1" width="19" height="19" rx="1.5" stroke="#D98235"/>
<defs>
<clipPath id="clip0_1048_1734">
<rect y="0.5" width="20" height="20" rx="2" fill="white"/>
</clipPath>
</defs>
</svg>
