<svg width="56" height="56" viewBox="0 0 56 56" fill="none" xmlns="http://www.w3.org/2000/svg">
	<circle cx="28" cy="28" r="27.25" stroke="#D98235" stroke-width="1.5" />
	<circle cx="28" cy="28" r="25" fill="#D98235" />
	<path d="M33.8351 14.5723C34.8415 13.5657 36.2065 13.0001 37.63 13C39.0534 12.9999 40.4185 13.5652 41.4251 14.5716C42.4317 15.578 42.9973 16.943 42.9975 18.3664C42.9976 19.7898 42.4323 21.155 41.4259 22.1616L40.088 23.501L32.4987 15.9102L33.8351 14.5723ZM30.9089 17.5016L15.9103 32.4987C15.3006 33.1077 14.8722 33.8741 14.6729 34.7124L13.0305 41.6148C12.9861 41.8018 12.9902 41.997 13.0426 42.1819C13.0951 42.3668 13.194 42.5352 13.3299 42.671C13.4659 42.8068 13.6344 42.9055 13.8193 42.9577C14.0043 43.0099 14.1995 43.0139 14.3864 42.9692L21.2873 41.3253C22.1261 41.1262 22.8931 40.6978 23.5026 40.0879L38.4982 25.0908L30.9089 17.5016Z" fill="white" />
</svg>
