<svg width="50" height="50" viewBox="0 0 50 50" fill="none" xmlns="http://www.w3.org/2000/svg">
<circle cx="25" cy="25" r="23" fill="#5666BE"/>
<circle cx="25" cy="25" r="24.25" stroke="#5666BE" stroke-width="1.5"/>
<path d="M31.1882 18.5003V13.6251H18.1877V18.5003H16.5626V12H32.8132V18.5003H31.1882ZM33.8127 24.188C34.2731 24.188 34.6593 24.032 34.9713 23.72C35.2833 23.408 35.4388 23.0223 35.4377 22.5629C35.4366 22.1036 35.2812 21.7173 34.9713 21.4043C34.6615 21.0912 34.2753 20.9351 33.8127 20.9362C33.3501 20.9373 32.9644 21.0933 32.6556 21.4043C32.3469 21.7152 32.1908 22.1014 32.1876 22.5629C32.1843 23.0244 32.3404 23.4101 32.6556 23.72C32.9709 24.0298 33.3555 24.1858 33.8127 24.188ZM31.1882 35.3749V28.0004H18.1877V35.3749H31.1882ZM32.8132 37H16.5626V30.4997H11V21.7504C11 20.8295 11.3126 20.0576 11.9377 19.4347C12.5628 18.8117 13.3336 18.4997 14.2501 18.4986H35.1257C36.0466 18.4986 36.8185 18.8106 37.4414 19.4347C38.0644 20.0587 38.3758 20.8301 38.3758 21.7488V30.4997H32.8132V37ZM36.7508 28.8747V21.7504C36.7508 21.29 36.5953 20.9037 36.2844 20.5917C35.9735 20.2797 35.5872 20.1237 35.1257 20.1237H14.2501C13.7897 20.1237 13.404 20.2797 13.0931 20.5917C12.7822 20.9037 12.6261 21.29 12.6251 21.7504V28.8747H16.5626V26.3753H32.8132V28.8747H36.7508Z" fill="white"/>
</svg>
