<svg width="24" height="22" viewBox="0 0 24 22" fill="none" xmlns="http://www.w3.org/2000/svg">
<path fill-rule="evenodd" clip-rule="evenodd" d="M11.9998 22C13.5204 22 15.0261 21.7155 16.4309 21.1627C17.8357 20.6099 19.1122 19.7996 20.1874 18.7782C21.2626 17.7567 22.1155 16.5441 22.6974 15.2095C23.2793 13.8749 23.5788 12.4445 23.5788 11C23.5788 9.55546 23.2793 8.12506 22.6974 6.79048C22.1155 5.4559 21.2626 4.24327 20.1874 3.22183C19.1122 2.20038 17.8357 1.39013 16.4309 0.837325C15.0261 0.284523 13.5204 -2.15253e-08 11.9998 0C8.92892 4.34724e-08 5.98377 1.15893 3.81229 3.22183C1.64082 5.28473 0.420898 8.08262 0.420898 11C0.420898 13.9174 1.64082 16.7153 3.81229 18.7782C5.98377 20.8411 8.92892 22 11.9998 22ZM11.7014 15.4489L18.1341 8.11556L16.158 6.55111L10.6258 12.8566L7.76324 10.1359L5.94406 11.8641L9.80371 15.5308L10.7995 16.4768L11.7014 15.4489Z" fill="#29AE47"/>
</svg>
