<svg width="100" height="100" viewBox="0 0 100 100" fill="none" xmlns="http://www.w3.org/2000/svg">
	<path d="M90.625 100H9.375C4.1875 100 0 95.8125 0 90.625V15.625C0 10.4375 4.1875 6.25 9.375 6.25H90.625C95.8125 6.25 100 10.4375 100 15.625V90.625C100 95.8125 95.8125 100 90.625 100ZM9.375 12.5C7.625 12.5 6.25 13.875 6.25 15.625V90.625C6.25 92.375 7.625 93.75 9.375 93.75H90.625C92.375 93.75 93.75 92.375 93.75 90.625V15.625C93.75 13.875 92.375 12.5 90.625 12.5H9.375Z" fill="white" />
	<path d="M28.125 25C26.375 25 25 23.625 25 21.875V3.125C25 1.375 26.375 0 28.125 0C29.875 0 31.25 1.375 31.25 3.125V21.875C31.25 23.625 29.875 25 28.125 25ZM71.875 25C70.125 25 68.75 23.625 68.75 21.875V3.125C68.75 1.375 70.125 0 71.875 0C73.625 0 75 1.375 75 3.125V21.875C75 23.625 73.625 25 71.875 25ZM96.875 37.5H3.125C1.375 37.5 0 36.125 0 34.375C0 32.625 1.375 31.25 3.125 31.25H96.875C98.625 31.25 100 32.625 100 34.375C100 36.125 98.625 37.5 96.875 37.5Z" fill="white" />
	<path d="M50 50V82M34 66H66" stroke="white" stroke-width="4" stroke-linecap="round" stroke-linejoin="round" />
</svg>
