<svg width="100" height="100" viewBox="0 0 100 100" fill="none" xmlns="http://www.w3.org/2000/svg">
	<path d="M90.625 99.5H9.375C4.46364 99.5 0.5 95.5364 0.5 90.625V15.625C0.5 10.7136 4.46364 6.75 9.375 6.75H90.625C95.5364 6.75 99.5 10.7136 99.5 15.625V90.625C99.5 95.5364 95.5364 99.5 90.625 99.5ZM9.375 12C7.34886 12 5.75 13.5989 5.75 15.625V90.625C5.75 92.6511 7.34886 94.25 9.375 94.25H90.625C92.6511 94.25 94.25 92.6511 94.25 90.625V15.625C94.25 13.5989 92.6511 12 90.625 12H9.375Z" fill="white" stroke="white" />
	<path d="M28.125 24.5C26.6511 24.5 25.5 23.3489 25.5 21.875V3.125C25.5 1.65114 26.6511 0.5 28.125 0.5C29.5989 0.5 30.75 1.65114 30.75 3.125V21.875C30.75 23.3489 29.5989 24.5 28.125 24.5ZM71.875 24.5C70.4011 24.5 69.25 23.3489 69.25 21.875V3.125C69.25 1.65114 70.4011 0.5 71.875 0.5C73.3489 0.5 74.5 1.65114 74.5 3.125V21.875C74.5 23.3489 73.3489 24.5 71.875 24.5ZM96.875 37H3.125C1.65114 37 0.5 35.8489 0.5 34.375C0.5 32.9011 1.65114 31.75 3.125 31.75H96.875C98.3489 31.75 99.5 32.9011 99.5 34.375C99.5 35.8489 98.3489 37 96.875 37Z" fill="white" stroke="white" />
	<path d="M50.0391 50.4825L50 66L59.2205 60.7207M29 66C28.9961 77.594 38.3963 86.9961 49.9932 87C61.592 87.0039 70.9961 77.6076 71 66.0127V66C71.0039 54.406 61.6037 45.0039 50.0068 45C38.408 44.9961 29.0039 54.3924 29 65.9873V66Z" stroke="white" stroke-width="4" stroke-linecap="round" stroke-linejoin="round" />
</svg>
