<svg width="64" height="65" viewBox="0 0 64 65" fill="none" xmlns="http://www.w3.org/2000/svg">
<path d="M38.8571 16.5004V11.929C38.8571 10.7166 38.3754 9.55381 37.5181 8.6965C36.6608 7.83919 35.4981 7.35756 34.2856 7.35756H29.7142M18.2856 48.5004H6.85707C5.64465 48.5004 4.48189 48.0188 3.62458 47.1615C2.76728 46.3042 2.28564 45.1414 2.28564 43.929V11.929C2.28564 10.7166 2.76728 9.55381 3.62458 8.6965C4.48189 7.83919 5.64465 7.35756 6.85707 7.35756H11.4285M38.8571 39.3576H52.5714M38.8571 48.5004H52.5714M57.1428 25.6433H34.2856C33.0732 25.6433 31.9105 26.1249 31.0532 26.9822C30.1958 27.8395 29.7142 29.0023 29.7142 30.2147V57.6433C29.7142 58.8557 30.1958 60.0185 31.0532 60.8758C31.9105 61.7331 33.0732 62.2147 34.2856 62.2147H57.1428C58.3552 62.2147 59.518 61.7331 60.3753 60.8758C61.2326 60.0185 61.7142 58.8557 61.7142 57.6433V30.2147C61.7142 29.0023 61.2326 27.8395 60.3753 26.9822C59.518 26.1249 58.3552 25.6433 57.1428 25.6433ZM30.8571 2.78613H10.2856L12.1599 10.1918C12.2741 10.6875 12.5536 11.1296 12.9524 11.4453C13.3512 11.761 13.8456 11.9316 14.3542 11.929H26.7885C27.2971 11.9316 27.7915 11.761 28.1903 11.4453C28.5891 11.1296 28.8686 10.6875 28.9828 10.1918L30.8571 2.78613Z" stroke="#5666BE" stroke-width="3" stroke-linecap="round" stroke-linejoin="round"/>
</svg>
