<svg width="50" height="50" viewBox="0 0 50 50" fill="none" xmlns="http://www.w3.org/2000/svg">
<circle cx="25" cy="25" r="25" fill="#5666BE"/>
<path d="M27.1472 29.918L35.6555 38.4263" stroke="white" stroke-width="3"/>
<path d="M29.9182 27.1475L38.4265 35.6558" stroke="white" stroke-width="3"/>
<path d="M38.4263 35.6558C38.7937 36.0232 39 36.5215 39 37.041C39 37.5606 38.7937 38.0589 38.4263 38.4263" stroke="white" stroke-width="3" stroke-linecap="round" stroke-linejoin="round"/>
<path d="M35.6558 38.4262C36.0231 38.7936 36.5214 39 37.041 39C37.5605 39 38.0588 38.7936 38.4262 38.4262" stroke="white" stroke-width="3" stroke-linecap="round" stroke-linejoin="round"/>
<path d="M19.8155 11.0001C20.9732 11.0001 22.1195 11.2281 23.1891 11.6711C24.2586 12.1141 25.2304 12.7635 26.049 13.5821C26.8676 14.4007 27.517 15.3725 27.96 16.442C28.403 17.5116 28.631 18.6579 28.631 19.8156C28.631 20.9733 28.403 22.1196 27.96 23.1891C27.517 24.2587 26.8676 25.2305 26.049 26.0491C25.2304 26.8677 24.2586 27.517 23.1891 27.9601C22.1195 28.4031 20.9732 28.6311 19.8155 28.6311C17.4775 28.6311 15.2352 27.7023 13.582 26.0491C11.9288 24.3959 11 22.1536 11 19.8156C11 18.6579 11.228 17.5116 11.671 16.442C12.1141 15.3725 12.7634 14.4007 13.582 13.5821C14.4006 12.7635 15.3724 12.1141 16.442 11.6711C17.5115 11.2281 18.6578 11.0001 19.8155 11.0001Z" stroke="white" stroke-width="3" stroke-linecap="round" stroke-linejoin="round"/>
<path d="M27.1472 29.918L29.9177 27.1475" stroke="white" stroke-width="3" stroke-linecap="round" stroke-linejoin="round"/>
<path d="M28.5329 28.5327L26.0493 26.0492" stroke="white" stroke-width="3" stroke-linecap="round" stroke-linejoin="round"/>
<path d="M29.5122 32.2827L32.2827 29.5123" stroke="white" stroke-width="3" stroke-linecap="round" stroke-linejoin="round"/>
<path d="M19.8157 14.9182C21.1146 14.9182 22.3603 15.4342 23.2787 16.3526C24.1972 17.2711 24.7132 18.5168 24.7132 19.8157" stroke="white" stroke-width="3" stroke-linecap="round" stroke-linejoin="round"/>
</svg>
