<svg width="50" height="50" viewBox="0 0 50 50" fill="none" xmlns="http://www.w3.org/2000/svg">
<circle cx="25" cy="25" r="23" fill="#5666BE"/>
<circle cx="25" cy="25" r="24.25" stroke="#5666BE" stroke-width="1.5"/>
<path d="M28.8889 16.8611L21.9444 21.7222M28.8889 32.1389L21.9444 27.2778M21.9444 24.5C21.9444 25.4209 21.5786 26.3041 20.9275 26.9552C20.2763 27.6064 19.3931 27.9722 18.4722 27.9722C17.5513 27.9722 16.6682 27.6064 16.017 26.9552C15.3658 26.3041 15 25.4209 15 24.5C15 23.5791 15.3658 22.6959 16.017 22.0448C16.6682 21.3936 17.5513 21.0278 18.4722 21.0278C19.3931 21.0278 20.2763 21.3936 20.9275 22.0448C21.5786 22.6959 21.9444 23.5791 21.9444 24.5ZM35.8333 33.5278C35.8333 34.4487 35.4675 35.3318 34.8163 35.983C34.1652 36.6342 33.282 37 32.3611 37C31.4402 37 30.557 36.6342 29.9059 35.983C29.2547 35.3318 28.8889 34.4487 28.8889 33.5278C28.8889 32.6069 29.2547 31.7237 29.9059 31.0725C30.557 30.4214 31.4402 30.0556 32.3611 30.0556C33.282 30.0556 34.1652 30.4214 34.8163 31.0725C35.4675 31.7237 35.8333 32.6069 35.8333 33.5278ZM35.8333 15.4722C35.8333 16.3931 35.4675 17.2763 34.8163 17.9275C34.1652 18.5786 33.282 18.9444 32.3611 18.9444C31.4402 18.9444 30.557 18.5786 29.9059 17.9275C29.2547 17.2763 28.8889 16.3931 28.8889 15.4722C28.8889 14.5513 29.2547 13.6682 29.9059 13.017C30.557 12.3658 31.4402 12 32.3611 12C33.282 12 34.1652 12.3658 34.8163 13.017C35.4675 13.6682 35.8333 14.5513 35.8333 15.4722Z" stroke="white" stroke-width="3" stroke-linecap="round" stroke-linejoin="round"/>
</svg>
