<svg width="32" height="32" viewBox="0 0 32 32" fill="none" xmlns="http://www.w3.org/2000/svg">
<path d="M3.97698 3.78516H1.47412V12C1.47412 13.951 2.24899 15.8221 3.62834 17.2019C5.00768 18.5817 6.87856 19.3571 8.82955 19.3577C9.79597 19.358 10.753 19.1679 11.6459 18.7983C12.5389 18.4287 13.3502 17.8868 14.0337 17.2035C14.7172 16.5203 15.2594 15.709 15.6293 14.8162C15.9992 13.9234 16.1895 12.9664 16.1895 12V3.78516H13.689M21.9998 9.76001C21.8761 10.2711 21.855 10.8016 21.9379 11.3209C22.0208 11.8401 22.2059 12.3378 22.4825 12.7849C22.7592 13.2321 23.1219 13.6199 23.5495 13.9258C23.9772 14.2318 24.4614 14.4498 24.9739 14.5672C25.4865 14.6846 26.0172 14.699 26.5354 14.6097C27.0536 14.5204 27.5489 14.3292 27.9926 14.047C28.4363 13.7648 28.8196 13.3974 29.1202 12.9659C29.4208 12.5345 29.6328 12.0477 29.7438 11.5337C29.8676 11.0227 29.8886 10.4921 29.8058 9.97286C29.7229 9.45361 29.5378 8.95596 29.2611 8.5088C28.9845 8.06163 28.6218 7.67383 28.1941 7.3679C27.7665 7.06196 27.2823 6.84398 26.7698 6.72658C26.2572 6.60918 25.7264 6.59471 25.2082 6.684C24.69 6.77329 24.1947 6.96457 23.751 7.24675C23.3073 7.52892 22.9241 7.89637 22.6235 8.3278C22.3228 8.75923 22.1109 9.24604 21.9998 9.76001Z" stroke="#5666BE" stroke-width="2" stroke-linecap="round" stroke-linejoin="round"/>
<path d="M8.97607 19.4283V22.1895C8.97607 23.2995 9.19471 24.3986 9.61949 25.4242C10.0443 26.4497 10.6669 27.3815 11.4518 28.1664C13.0369 29.7515 15.1869 30.6421 17.4286 30.6421C18.5388 30.6424 19.6382 30.424 20.664 29.9993C21.6898 29.5747 22.6219 28.9521 23.407 28.1672C24.1921 27.3822 24.8149 26.4503 25.2399 25.4247C25.6648 24.399 25.8835 23.2997 25.8835 22.1895V15.0718" stroke="#5666BE" stroke-width="2" stroke-linecap="round" stroke-linejoin="round"/>
</svg>
