<svg width="39" height="32" viewBox="0 0 39 32" fill="none" xmlns="http://www.w3.org/2000/svg">
	<path d="M19.2719 1.06285e-05C22.4647 -0.00418647 25.5337 1.23482 27.8288 3.45451C30.1238 5.67421 31.4644 8.70021 31.5668 11.8914L31.5733 12.3014V19.0213L33.8368 24.1978C33.9729 24.5097 34.0293 24.8506 34.0007 25.1897C33.9722 25.5289 33.8597 25.8556 33.6733 26.1404C33.487 26.4252 33.2327 26.6591 32.9334 26.8211C32.634 26.983 32.2991 27.0679 31.9588 27.0681L24.1924 27.073C24.1941 28.354 23.6962 29.5851 22.8045 30.5048C21.9127 31.4244 20.6975 31.9601 19.4171 31.9979C18.1367 32.0357 16.892 31.5726 15.9475 30.7072C15.0031 29.8418 14.4334 28.6422 14.3595 27.3633L14.3513 27.0681H6.6014C6.26141 27.0681 5.92677 26.9836 5.62758 26.8221C5.32839 26.6606 5.07405 26.4273 4.88745 26.1431C4.70086 25.8589 4.58787 25.5327 4.55866 25.194C4.52944 24.8553 4.58492 24.5146 4.7201 24.2027L6.97044 19.023V12.3014C6.97044 5.48645 12.4684 1.06285e-05 19.2719 1.06285e-05ZM21.7322 27.0697L16.8116 27.073C16.8115 27.705 17.0546 28.3128 17.4905 28.7704C17.9263 29.2279 18.5216 29.5003 19.1528 29.5308C19.7841 29.5614 20.4028 29.3479 20.8809 28.9346C21.359 28.5213 21.6597 27.9399 21.7207 27.3108L21.7322 27.0697ZM19.2719 2.4603C13.8264 2.4603 9.43073 6.84617 9.43073 12.3014V19.5347L7.22631 24.6094H31.3322L29.113 19.5363V12.3228L29.1065 11.9537C29.0204 9.40419 27.9461 6.98807 26.1108 5.21636C24.2754 3.44466 21.8229 2.45629 19.2719 2.4603ZM34.0336 10.2578H37.314C37.6257 10.2579 37.9257 10.3763 38.1534 10.589C38.3812 10.8018 38.5196 11.0931 38.5409 11.4041C38.5621 11.715 38.4646 12.0224 38.2679 12.2642C38.0712 12.506 37.79 12.6641 37.4813 12.7066L37.314 12.7181H34.0336C33.7219 12.718 33.4219 12.5996 33.1942 12.3868C32.9664 12.174 32.8279 11.8827 32.8067 11.5718C32.7854 11.2608 32.883 10.9534 33.0797 10.7116C33.2764 10.4698 33.5575 10.3117 33.8663 10.2692L34.0336 10.2578ZM1.22977 10.2578H4.51015C4.82183 10.2579 5.12185 10.3763 5.34959 10.589C5.57733 10.8018 5.71581 11.0931 5.73706 11.4041C5.7583 11.715 5.66072 12.0224 5.46403 12.2642C5.26735 12.506 4.98622 12.6641 4.67745 12.7066L4.51015 12.7181H1.22977C0.918094 12.718 0.618074 12.5996 0.390332 12.3868C0.16259 12.174 0.0241065 11.8827 0.00286276 11.5718C-0.018381 11.2608 0.0791994 10.9534 0.275887 10.7116C0.472574 10.4698 0.753703 10.3117 1.06247 10.2692L1.22977 10.2578ZM36.6579 0.908677C36.8349 1.14444 36.9213 1.43591 36.9014 1.73001C36.8815 2.02412 36.7567 2.30132 36.5497 2.51114L36.4119 2.63088L33.1315 5.09116C32.8832 5.27832 32.5732 5.36449 32.2639 5.33234C31.9546 5.30018 31.669 5.15209 31.4645 4.91785C31.2599 4.68362 31.1517 4.38062 31.1616 4.06982C31.1714 3.75902 31.2986 3.46348 31.5175 3.24267L31.6553 3.12294L34.9357 0.662648C35.1967 0.466895 35.5248 0.382843 35.8478 0.428983C36.1707 0.475122 36.4622 0.647673 36.6579 0.908677ZM3.60805 0.662648L6.88843 3.12294C7.01766 3.21986 7.12654 3.34129 7.20885 3.4803C7.29116 3.6193 7.34528 3.77316 7.36812 3.93308C7.39097 4.093 7.38209 4.25586 7.342 4.41235C7.30191 4.56884 7.23138 4.7159 7.13446 4.84514C7.03753 4.97437 6.9161 5.08325 6.77709 5.16556C6.63809 5.24786 6.48423 5.30198 6.32431 5.32483C6.16439 5.34768 6.00154 5.3388 5.84505 5.29871C5.68855 5.25861 5.54149 5.18809 5.41226 5.09116L2.13187 2.63088C2.00264 2.53395 1.89376 2.41252 1.81145 2.27351C1.72915 2.13451 1.67503 1.98065 1.65218 1.82073C1.62933 1.66081 1.63821 1.49796 1.6783 1.34146C1.7184 1.18497 1.78892 1.03791 1.88585 0.908677C1.98277 0.779441 2.1042 0.670561 2.24321 0.588255C2.38222 0.505949 2.53607 0.451829 2.69599 0.428983C2.85591 0.406137 3.01877 0.415013 3.17526 0.455106C3.33175 0.495198 3.47881 0.565721 3.60805 0.662648Z" fill="#C60000" />
</svg>
