<!-- <?xml version="1.0" encoding="utf-8"?> -->
<svg fill="#000000" version="1.1" id="Doctor" xmlns="http://www.w3.org/2000/svg" xmlns:xlink="http://www.w3.org/1999/xlink" width="80px" height="80px" viewBox="0 0 300 300" enable-background="new 0 0 300 300" xml:space="preserve">
	<path d="M206.243,38.157c0-15.695-12.769-28.463-28.463-28.463c-10.484,0-19.656,5.702-24.595,14.164
	c-0.984-0.076-1.974-0.128-2.977-0.128c-13.41,0-25.21,6.86-32.1,17.27h31.352c0.355,3.568,1.378,6.94,2.932,10h-38.984
	c-1.07,3.53-1.65,7.29-1.65,11.17c0,21.24,17.22,38.45,38.45,38.45c20.451,0,37.165-15.972,38.364-36.131
	C198.929,60.228,206.243,50.033,206.243,38.157z M177.78,56.62c-10.181,0-18.463-8.282-18.463-18.463s8.282-18.463,18.463-18.463
	s18.463,8.283,18.463,18.463S187.96,56.62,177.78,56.62z M177.863,31.017c3.943,0,7.14,3.197,7.14,7.14s-3.197,7.14-7.14,7.14
	s-7.14-3.197-7.14-7.14S173.919,31.017,177.863,31.017z M196.333,112h-21.175L157,151.405V112h-14v39.482L124.845,112h-21.179
	C76.28,112,54,134.281,54,161.667V269.5c0,12.406,10.093,22.5,22.5,22.5c6.512,0,12.388-2.781,16.5-7.218V292h114v-7.218
	c4.112,4.437,9.987,7.218,16.5,7.218c12.406,0,22.5-10.094,22.5-22.5V161.667C246,134.281,223.72,112,196.333,112z M234,269.5
	c0,5.79-4.71,10.5-10.5,10.5s-10.5-4.71-10.5-10.5V169h-18v111h-90V169H87v100.5c0,5.79-4.71,10.5-10.5,10.5S66,275.29,66,269.5
	V161.667C66,140.897,82.897,124,103.667,124h13.488l32.808,71.35L182.842,124h13.491c20.77,0,37.667,16.897,37.667,37.667V269.5z" />
</svg>
