<svg width="142" height="142" viewBox="0 0 142 142" fill="none" xmlns="http://www.w3.org/2000/svg">
<circle cx="71" cy="71" r="61" stroke="#5666BE" stroke-opacity="0.6" stroke-width="20"/>
<g clip-path="url(#clip0_595_2032)">
<path d="M46.6429 48.8571C45.4684 48.8571 44.342 49.3237 43.5115 50.1542C42.6809 50.9847 42.2144 52.1111 42.2144 53.2857V95.3571C42.2144 96.5316 42.6809 97.658 43.5115 98.4886C44.342 99.3191 45.4684 99.7857 46.6429 99.7857H95.3572C96.5317 99.7857 97.6582 99.3191 98.4887 98.4886C99.3192 97.658 99.7858 96.5316 99.7858 95.3571V53.2857C99.7858 52.1111 99.3192 50.9847 98.4887 50.1542C97.6582 49.3237 96.5317 48.8571 95.3572 48.8571H86.5001M55.5001 42.2142V55.4999M86.5001 42.2142V55.4999M55.5001 48.8571H77.6429" stroke="#5666BE" stroke-width="5" stroke-linecap="round" stroke-linejoin="round"/>
<path d="M67.404 60.2031C66.8167 60.2031 66.2535 60.4364 65.8383 60.8517C65.423 61.2669 65.1897 61.8301 65.1897 62.4174V68.644H58.9543C58.367 68.644 57.8038 68.8773 57.3885 69.2925C56.9733 69.7078 56.74 70.271 56.74 70.8583V78.0547C56.74 78.642 56.9733 79.2052 57.3885 79.6204C57.8038 80.0357 58.367 80.269 58.9543 80.269H65.1853V86.4956C65.1853 87.0828 65.4186 87.646 65.8338 88.0613C66.2491 88.4765 66.8123 88.7098 67.3996 88.7098H74.596C74.8868 88.7098 75.1747 88.6526 75.4434 88.5413C75.712 88.43 75.9561 88.2669 76.1617 88.0613C76.3673 87.8557 76.5304 87.6116 76.6417 87.3429C76.753 87.0743 76.8103 86.7863 76.8103 86.4956V80.269H83.0368C83.6241 80.269 84.1873 80.0357 84.6026 79.6204C85.0178 79.2052 85.2511 78.642 85.2511 78.0547V70.8583C85.2511 70.271 85.0178 69.7078 84.6026 69.2925C84.1873 68.8773 83.6241 68.644 83.0368 68.644H76.8147V62.4174C76.8147 61.8301 76.5814 61.2669 76.1662 60.8517C75.7509 60.4364 75.1877 60.2031 74.6004 60.2031H67.404Z" stroke="#5666BE" stroke-width="5" stroke-linecap="round" stroke-linejoin="round"/>
</g>
<defs>
<clipPath id="clip0_595_2032">
<rect width="62" height="62" fill="white" transform="translate(40 40)"/>
</clipPath>
</defs>
</svg>
