<svg width="170" height="170" viewBox="0 0 170 170" fill="none" xmlns="http://www.w3.org/2000/svg">
<path d="M104 76V72.454C104 67.375 104 64.834 103.244 62.806C102.643 61.1942 101.702 59.7305 100.486 58.5142C99.2695 57.2978 97.8058 56.3571 96.194 55.756C94.166 55 91.625 55 86.546 55C77.657 55 73.211 55 69.662 56.323C66.8404 57.3746 64.278 59.0207 62.1485 61.1497C60.019 63.2787 58.3723 65.8407 57.32 68.662C56 72.211 56 76.657 56 85.546V93.181C56 102.391 56 106.993 58.394 110.191C59.0797 111.107 59.893 111.92 60.809 112.606C64.007 115 68.609 115 77.819 115H90.5" stroke="#5666BE" stroke-width="4" stroke-linecap="round" stroke-linejoin="round"/>
<path d="M80 91.999H82.52C84.506 91.999 85.499 91.999 86.294 92.524C87.092 93.046 87.536 93.988 88.424 95.869L93.2 106L99.8 85L104.576 95.131C105.464 97.012 105.908 97.954 106.706 98.476C107.504 98.998 108.494 99.001 110.48 99.001H113M56 85C56 82.3481 57.0535 79.8048 58.9286 77.9296C60.8038 76.0545 63.3471 75.001 65.999 75.001H69.332C70.883 75.001 71.657 75.001 72.293 74.83C73.1411 74.6018 73.9143 74.1546 74.5351 73.5332C75.1559 72.9119 75.6025 72.1383 75.83 71.29C76.001 70.654 76.001 69.88 76.001 68.329V64.999C76.001 62.3471 77.0545 59.8038 78.9296 57.9286C80.8048 56.0535 83.3481 55 86 55" stroke="#5666BE" stroke-width="4" stroke-linecap="round" stroke-linejoin="round"/>
<circle cx="85" cy="85" r="75" stroke="#C0C0C0" stroke-width="20"/>
<path d="M160 85C160 94.8491 158.06 104.602 154.291 113.701C150.522 122.801 144.997 131.069 138.033 138.033C131.069 144.997 122.801 150.522 113.701 154.291C104.602 158.06 94.8491 160 85 160C75.1509 160 65.3982 158.06 56.2987 154.291C47.1993 150.522 38.9314 144.997 31.967 138.033C25.0026 131.069 19.4781 122.801 15.709 113.701C11.9399 104.602 10 94.8491 10 85C10 75.1509 11.9399 65.3982 15.709 56.2987C19.4781 47.1993 25.0026 38.9314 31.967 31.967C38.9314 25.0026 47.1993 19.4781 56.2988 15.709C65.3982 11.9399 75.1509 10 85 10C94.8492 10 104.602 11.9399 113.701 15.709C122.801 19.4781 131.069 25.0026 138.033 31.967C144.997 38.9314 150.522 47.1993 154.291 56.2988C158.06 65.3982 160 75.1509 160 85L160 85Z" stroke="#5666BE" stroke-width="20" stroke-linecap="round" stroke-linejoin="round"/>
</svg>
