<svg width="142" height="142" viewBox="0 0 142 142" fill="none" xmlns="http://www.w3.org/2000/svg">
<circle cx="71" cy="71" r="61" stroke="#5666BE" stroke-opacity="0.6" stroke-width="20"/>
<g clip-path="url(#clip0_584_1824)">
<path fill-rule="evenodd" clip-rule="evenodd" d="M86.0807 55.2265C86.0807 45.552 79.383 39.2441 72.331 39.2441C65.2671 39.2441 58.719 45.489 58.719 55.2265C58.7466 61.7548 64.8655 74.1225 72.4018 74.1225C79.9343 74.1225 86.0413 61.7548 86.0807 55.2265ZM92.1523 82.474C89.5816 82.4729 87.1157 83.4926 85.2964 85.3089C83.4772 87.1252 82.4535 89.5895 82.4503 92.1602C82.4503 94.7323 83.4721 97.199 85.2908 99.0178C87.1096 100.837 89.5763 101.858 92.1484 101.858C94.7205 101.858 97.1872 100.837 99.006 99.0178C100.825 97.199 101.846 94.7323 101.846 92.1602C101.844 89.5905 100.822 87.1268 99.0043 85.3105C97.1866 83.4942 94.722 82.474 92.1523 82.474ZM94.2628 94.2116V98.0625H90.1167V94.2116H86.0689V90.1442H90.1167V86.1043H94.2628V90.1442H98.157V94.2116H94.2628ZM76.0047 90.1954C76.0047 85.309 78.1506 80.9265 81.5408 77.9537C83.356 76.3551 83.2497 76.4968 81.6668 77.2646C77.1072 79.4775 70.9332 80.1233 70.9332 80.1233C70.9332 80.1233 59.4829 78.9932 56.1085 74.4572C39.945 74.4572 39.4568 97.9405 39.4568 97.9405H77.9458C76.6698 95.5584 76.0029 92.8977 76.0047 90.1954Z" fill="#5666BE"/>
</g>
<defs>
<clipPath id="clip0_584_1824">
<rect width="63" height="63" fill="white" transform="translate(39 39)"/>
</clipPath>
</defs>
</svg>
