<svg width="170" height="170" viewBox="0 0 170 170" fill="none" xmlns="http://www.w3.org/2000/svg">
<circle cx="85" cy="85" r="75" stroke="#C0C0C0" stroke-width="20"/>
<path d="M160 85C160 94.8491 158.06 104.602 154.291 113.701C150.522 122.801 144.997 131.069 138.033 138.033C131.069 144.997 122.801 150.522 113.701 154.291C104.602 158.06 94.8491 160 85 160C75.1509 160 65.3982 158.06 56.2987 154.291C47.1993 150.522 38.9314 144.997 31.967 138.033C25.0026 131.069 19.4781 122.801 15.709 113.701C11.9399 104.602 10 94.8491 10 85" stroke="#5666BE" stroke-width="20" stroke-linecap="round" stroke-linejoin="round"/>
<path d="M109.063 76.25V80.625H111.25V89.375C111.25 91.1155 110.559 92.7847 109.328 94.0154C108.097 95.2461 106.428 95.9375 104.688 95.9375C102.947 95.9375 101.278 95.2461 100.047 94.0154C98.8164 92.7847 98.125 91.1155 98.125 89.375V80.625H100.313V76.25H93.75V89.375C93.7541 91.895 94.6265 94.3365 96.2203 96.2885C97.814 98.2405 100.032 99.5835 102.5 100.092V102.5C102.5 104.821 101.578 107.046 99.9372 108.687C98.2963 110.328 96.0707 111.25 93.75 111.25C91.4294 111.25 89.2038 110.328 87.5628 108.687C85.9219 107.046 85 104.821 85 102.5V97.7225C86.4595 97.2065 87.6897 96.1911 88.473 94.8558C89.2563 93.5205 89.5423 91.9514 89.2805 90.4256C89.0187 88.8998 88.226 87.5157 87.0424 86.5179C85.8588 85.5201 84.3606 84.9728 82.8125 84.9728C81.2644 84.9728 79.7662 85.5201 78.5826 86.5179C77.399 87.5157 76.6063 88.8998 76.3445 90.4256C76.0827 91.9514 76.3688 93.5205 77.1521 94.8558C77.9354 96.1911 79.1655 97.2065 80.625 97.7225V102.5C80.625 105.981 82.0078 109.319 84.4692 111.781C86.9307 114.242 90.269 115.625 93.75 115.625C97.231 115.625 100.569 114.242 103.031 111.781C105.492 109.319 106.875 105.981 106.875 102.5V100.092C109.343 99.5835 111.561 98.2405 113.155 96.2885C114.749 94.3365 115.621 91.895 115.625 89.375V76.25H109.063ZM82.8125 89.375C83.2452 89.375 83.6681 89.5033 84.0278 89.7437C84.3876 89.984 84.6679 90.3257 84.8335 90.7254C84.9991 91.1251 85.0424 91.5649 84.958 91.9893C84.8736 92.4136 84.6652 92.8034 84.3593 93.1093C84.0534 93.4152 83.6636 93.6236 83.2393 93.708C82.8149 93.7924 82.3751 93.7491 81.9754 93.5835C81.5757 93.4179 81.234 93.1375 80.9937 92.7778C80.7533 92.4181 80.625 91.9951 80.625 91.5625C80.625 90.9823 80.8555 90.4259 81.2657 90.0157C81.676 89.6055 82.2324 89.375 82.8125 89.375Z" fill="#5666BE"/>
<path d="M106.875 58.75H98.125V54.375H93.75V58.75H76.25V54.375H71.875V58.75H63.125C61.9647 58.75 60.8519 59.2109 60.0314 60.0314C59.2109 60.8519 58.75 61.9647 58.75 63.125V106.875C58.75 108.035 59.2109 109.148 60.0314 109.969C60.8519 110.789 61.9647 111.25 63.125 111.25H71.875V106.875H63.125V63.125H71.875V67.5H76.25V63.125H93.75V67.5H98.125V63.125H106.875V71.875H111.25V63.125C111.25 61.9647 110.789 60.8519 109.969 60.0314C109.148 59.2109 108.035 58.75 106.875 58.75Z" fill="#5666BE"/>
</svg>
