<svg width="100" height="100" viewBox="0 0 100 100" fill="none" xmlns="http://www.w3.org/2000/svg">
<path fill-rule="evenodd" clip-rule="evenodd" d="M70.8333 33.3333C70.8333 44.8396 61.5062 54.1667 50 54.1667C38.4937 54.1667 29.1667 44.8396 29.1667 33.3333C29.1667 21.8271 38.4937 12.5 50 12.5C61.5062 12.5 70.8333 21.8271 70.8333 33.3333ZM66.6667 33.3333C66.6667 37.7536 64.9107 41.9928 61.7851 45.1184C58.6595 48.2441 54.4203 50 50 50C45.5797 50 41.3405 48.2441 38.2149 45.1184C35.0893 41.9928 33.3333 37.7536 33.3333 33.3333C33.3333 28.9131 35.0893 24.6738 38.2149 21.5482C41.3405 18.4226 45.5797 16.6667 50 16.6667C54.4203 16.6667 58.6595 18.4226 61.7851 21.5482C64.9107 24.6738 66.6667 28.9131 66.6667 33.3333ZM37.3208 60.1146L37.3437 60.1604L37.5 60.4667H61.9771C62.4542 59.5625 63.5354 58.1208 64.5833 58.3604C66.9375 58.8958 69.3083 59.6417 71.5854 60.5604L71.6542 60.5271L71.6771 60.5729L71.6937 60.6042C80.2667 64.0875 87.5 69.9917 87.5 76.1875V87.5H12.5V76.1875C12.5 68.3229 24.1583 60.9229 35.4167 58.3604C36.3354 58.1521 36.8812 59.2354 37.3208 60.1146ZM68.1333 63.7146C67.2396 63.4017 66.3356 63.1189 65.4229 62.8667L64.4937 64.6333H34.9854L34.1229 62.9937L33.3729 63.2187C33.3583 63.3562 33.3458 63.5104 33.3396 63.6854C33.3125 64.4042 33.3667 65.2562 33.4854 66.1229C33.6073 67.0268 33.8024 67.9193 34.0688 68.7917C35.5322 68.9651 36.8874 69.65 37.8948 70.7256C38.9023 71.8011 39.4973 73.1981 39.5748 74.6697C39.6522 76.1414 39.2072 77.5931 38.3182 78.7685C37.4292 79.9439 36.1534 80.7673 34.7163 81.0934C33.2791 81.4194 31.7729 81.2271 30.4637 80.5505C29.1545 79.8738 28.1266 78.7563 27.5614 77.3953C26.9962 76.0343 26.9301 74.5173 27.3747 73.1123C27.8194 71.7073 28.7463 70.5046 29.9917 69.7167L29.975 69.6583C29.6974 68.6843 29.4906 67.6914 29.3562 66.6875C29.2679 66.0461 29.2095 65.401 29.1812 64.7542C26.6062 65.8542 24.2042 67.1833 22.1917 68.65C18.1875 71.575 16.6667 74.3083 16.6667 76.1875V83.3333H83.3333V76.1875C83.3333 74.3062 81.8125 71.5729 77.8083 68.6521C76.0624 67.3967 74.2029 66.3072 72.2542 65.3979C72.1694 66.527 71.9967 67.6478 71.7375 68.75H72.9167C73.3035 68.7502 73.6826 68.8581 74.0115 69.0616C74.3405 69.265 74.6063 69.5561 74.7792 69.9021L76.8625 74.0688C77.0083 74.3583 77.0833 74.6771 77.0833 75V79.1667C77.0833 79.7192 76.8638 80.2491 76.4731 80.6398C76.0824 81.0305 75.5525 81.25 75 81.25H70.8333V77.0833H72.9167V75.4917L71.6292 72.9167H65.8708L64.5833 75.4917V77.0833H66.6667V81.25H62.5C61.9475 81.25 61.4176 81.0305 61.0269 80.6398C60.6362 80.2491 60.4167 79.7192 60.4167 79.1667V75C60.4167 74.6771 60.4917 74.3583 60.6375 74.0688L62.7208 69.9021C62.8937 69.5561 63.1595 69.265 63.4885 69.0616C63.8174 68.8581 64.1965 68.7502 64.5833 68.75H67.4208C67.4458 68.6667 67.4729 68.5833 67.4979 68.4917C67.6937 67.8229 67.8687 66.9917 67.9875 66.125C68.1042 65.2667 68.1583 64.4271 68.1333 63.7146ZM35.4167 75C35.4167 76.1958 34.4542 77.1146 33.3333 77.1146C32.2125 77.1146 31.25 76.1979 31.25 75C31.25 73.8042 32.2125 72.8854 33.3333 72.8854C34.4542 72.8854 35.4167 73.8021 35.4167 75Z" fill="#5666BE"/>
</svg>
