<svg width="170" height="170" viewBox="0 0 170 170" fill="none" xmlns="http://www.w3.org/2000/svg">
<circle cx="85" cy="85" r="75" stroke="#C0C0C0" stroke-width="20"/>
<path d="M160 85C160 98.8317 156.175 112.394 148.948 124.187C141.721 135.981 131.373 145.546 119.049 151.825C106.725 158.105 92.9046 160.854 79.1156 159.769C65.3265 158.684 52.1062 153.806 40.9161 145.676C29.726 137.546 21.0022 126.48 15.709 113.701C10.4159 100.922 8.75962 86.9288 10.9234 73.2674C13.0871 59.606 18.9866 46.8091 27.9695 36.2914C36.9525 25.7737 48.669 17.945 61.8237 13.6708" stroke="#5666BE" stroke-width="20" stroke-linecap="round" stroke-linejoin="round"/>
<path d="M110.587 59.414C107.76 56.5877 103.925 55 99.9268 55C95.9286 55 92.0941 56.5877 89.2661 59.414L59.4162 89.2639C56.5888 92.0909 55.0003 95.9253 55 99.9235C54.9997 103.922 56.5878 107.756 59.4148 110.584C62.2418 113.411 66.0761 115 70.0744 115C74.0726 115 77.9073 113.412 80.7346 110.585L110.587 80.7353C113.412 77.9063 114.998 74.0721 114.998 70.0747C114.998 66.0772 113.412 62.2431 110.587 59.414ZM78.2378 108.085C76.0584 110.177 73.1462 111.331 70.1258 111.3C67.1054 111.269 64.2174 110.056 62.0811 107.92C59.9449 105.785 58.7306 102.897 58.6986 99.8769C58.6666 96.8565 59.8195 93.9438 61.9101 91.7636L75.591 78.0856L91.9188 94.4104L78.2378 108.085ZM108.094 78.2356L94.4127 91.9136L78.0849 75.5888L91.7659 61.9137C93.9453 59.8224 96.8575 58.6684 99.8779 58.6993C102.898 58.7302 105.786 59.9435 107.923 62.079C110.059 64.2144 111.273 67.102 111.305 70.1224C111.337 73.1428 110.184 76.0554 108.094 78.2356ZM102.724 71.9892C103.054 72.32 103.24 72.7685 103.24 73.2361C103.24 73.7037 103.054 74.1522 102.724 74.483L95.6655 81.5411C95.3338 81.8678 94.8866 82.0502 94.4211 82.0486C93.9556 82.047 93.5096 81.8615 93.1802 81.5325C92.8509 81.2036 92.6649 80.7578 92.6627 80.2923C92.6605 79.8268 92.8424 79.3793 93.1687 79.0473L100.227 71.9892C100.391 71.8251 100.585 71.695 100.799 71.6062C101.014 71.5174 101.243 71.4717 101.475 71.4717C101.707 71.4717 101.937 71.5174 102.151 71.6062C102.365 71.695 102.56 71.8251 102.724 71.9892Z" fill="#5666BE"/>
</svg>
